<svg width="49" height="46" viewBox="0 0 49 46" fill="none" xmlns="http://www.w3.org/2000/svg">
<g id="Group">
<path id="Vector" d="M7.24658 29.5127L8.93687 41.8147C8.93687 44.0871 15.867 45.9206 24.403 45.9206C32.9389 45.9206 39.8691 44.0871 39.8691 41.8147L41.5594 29.5127H7.24658Z" fill="url(#paint0_linear_227_985)"/>
<g id="Group_2">
<path id="Vector_2" d="M48.7769 26.7388C43.7736 39.9184 30.9612 39.9184 30.9612 39.9184C30.9612 39.9184 24.2508 35.2954 22.1887 39.3386C20.1096 43.3818 0.468492 25.015 0.0121151 18.7934C-0.427359 12.5719 11.2356 6.19364 11.2356 6.19364C11.2356 6.19364 11.8272 1.49222 18.994 0.191501C26.1439 -1.10922 34.2742 4.64217 34.2742 4.64217C34.2742 4.64217 36.049 3.8586 39.2944 6.66378C42.5397 9.46896 48.743 26.7388 48.743 26.7388H48.7769Z" fill="#6AAC16"/>
<path id="Vector_3" d="M0.0123561 18.6054C-0.122867 14.4368 5.06631 10.2212 8.42998 7.94883C12.8923 9.67268 19.8056 10.5033 19.8056 10.5033C19.8056 10.5033 14.5319 7.03989 12.6726 3.38846C13.7713 2.13475 15.6813 0.802684 18.9943 0.191501C26.1442 -1.10922 34.2744 4.64217 34.2744 4.64217C34.2744 4.64217 36.0492 3.8586 39.2946 6.66378C41.8807 8.88912 46.36 20.3292 48.0672 24.8739C45.9374 24.2314 43.047 23.6829 43.047 23.6829L46.3938 26.5821C32.9053 31.2522 18.2336 27.0993 18.2336 27.0993L23.8454 31.6596C23.8454 31.6596 8.80184 28.3373 0.0123561 18.6054Z" fill="#80C739"/>
<path id="Vector_4" d="M30.9614 2.68335C32.9898 3.70199 34.3082 4.64227 34.3082 4.64227C34.3082 4.64227 34.5955 4.5169 35.1533 4.54825C36.9281 8.5131 37.7564 11.4123 37.7564 11.4123C37.7564 11.4123 36.6239 8.4034 30.9614 2.69902V2.68335Z" fill="#AAA730"/>
<path id="Vector_5" d="M16.8644 6.99288C15.2755 5.59813 14.3628 3.92129 13.4331 2.63624C14.5825 1.63327 16.3404 0.677314 19.011 0.191501C26.161 -1.10922 34.2912 4.64217 34.2912 4.64217C34.2912 4.64217 36.066 3.8586 39.3114 6.66378C40.5453 7.72943 42.1849 10.848 43.7737 14.3271C39.5142 20.7837 27.902 16.7561 16.8644 6.99288Z" fill="#97DF5F"/>
<path id="Vector_6" d="M7.51706 8.59131C16.8136 10.7853 31.5698 21.05 31.7389 22.9149C31.9248 25.0149 13.9063 26.8171 0.231934 16.9442C1.14469 13.7159 4.67738 10.6286 7.51706 8.60698V8.59131Z" fill="#97DF5F"/>
<path id="Vector_7" d="M40.3255 22.4761C35.6941 20.3761 33.3784 18.6836 33.3784 18.6836C33.3784 18.6836 35.3899 20.8933 36.7252 21.7709C38.0605 22.6484 40.3255 22.4917 40.3255 22.4917V22.4761Z" fill="#6AAC16"/>
<path id="Vector_8" d="M24.4032 14.3427C20.7522 14.139 17.9463 12.2898 17.9463 12.2898L21.2423 12.7443L24.3863 14.3427H24.4032Z" fill="#6AAC16"/>
</g>
</g>
<defs>
<linearGradient id="paint0_linear_227_985" x1="25.789" y1="26.6605" x2="20.6096" y2="51.1525" gradientUnits="userSpaceOnUse">
<stop stop-color="#8C6239"/>
<stop offset="1" stop-color="#603813"/>
</linearGradient>
</defs>
</svg>
