<svg width="84" height="135" viewBox="0 0 84 135" fill="none" xmlns="http://www.w3.org/2000/svg">
<path d="M22.3252 112.047L24.4766 128.936C24.4766 132.056 33.2976 134.573 44.1624 134.573C55.0272 134.573 63.8481 132.056 63.8481 128.936L65.9996 112.047H22.3252Z" fill="url(#paint0_linear_227_995)"/>
<path d="M64 98.8339C57.946 117 42.443 117 42.443 117C42.443 117 34.3233 110.628 31.828 116.201C29.3328 121.774 5.54643 96.4794 5.01466 87.9039C4.48289 79.3285 18.5952 70.537 18.5952 70.537C18.5952 70.537 19.311 64.0568 27.9829 62.264C36.6344 60.4711 46.4721 68.3985 46.4721 68.3985C46.4721 68.3985 48.6196 67.3185 52.5466 71.185C56.4735 75.0515 63.9796 98.8555 63.9796 98.8555L64 98.8339Z" fill="#6AAC16"/>
<path d="M6.00307 87.8574C5.84269 82.064 11.9975 76.2052 15.9871 73.0472C21.2798 75.4429 29.4795 76.5973 29.4795 76.5973C29.4795 76.5973 23.2244 71.7839 21.0192 66.7092C22.3223 64.9668 24.5877 63.1156 28.5171 62.2661C36.9975 60.4584 46.6407 68.4516 46.6407 68.4516C46.6407 68.4516 48.7458 67.3626 52.595 71.2612C55.6624 74.3539 60.9751 90.2532 63 96.5693C60.4739 95.6764 57.0457 94.9141 57.0457 94.9141L61.0152 98.9433C45.0168 105.434 27.615 99.6621 27.615 99.6621L34.271 106C34.271 106 16.4081 101.383 6.00307 87.8574Z" fill="#97DF5F"/>
<path d="M41.3867 66.0923C43.9685 67.4907 45.6466 68.7816 45.6466 68.7816C45.6466 68.7816 46.0123 68.6095 46.7223 68.6525C48.9813 74.0957 50.0355 78.0758 50.0355 78.0758C50.0355 78.0758 48.5941 73.9451 41.3867 66.1138V66.0923Z" fill="#AAA730"/>
<path d="M23.4656 72.0089C21.4432 70.0941 20.2814 67.792 19.0981 66.0279C20.5611 64.6509 22.7986 63.3385 26.1979 62.6716C35.2985 60.8859 45.647 68.7817 45.647 68.7817C45.647 68.7817 47.906 67.706 52.0368 71.5571C53.6074 73.0201 55.6943 77.3014 57.7166 82.0777C52.295 90.9416 37.5145 85.4124 23.4656 72.0089Z" fill="url(#paint1_linear_227_995)"/>
<path d="M8.34958 73.411C20.3147 70.9761 43.3565 75.4955 44.6639 77.7073C46.131 80.2003 26.556 92.4039 4.9879 87.7699C4.10624 83.2738 6.31155 77.5016 8.35894 73.4303L8.34958 73.411Z" fill="#97DF5F"/>
<path d="M53.3058 93.2651C47.4109 90.3822 44.4634 88.0586 44.4634 88.0586C44.4634 88.0586 47.0236 91.0921 48.7233 92.2969C50.4229 93.5018 53.3058 93.2866 53.3058 93.2866V93.2651Z" fill="#AAA730"/>
<path d="M33.0393 82.0992C28.3922 81.8195 24.8208 79.2808 24.8208 79.2808L29.0161 79.9047L33.0178 82.0992H33.0393Z" fill="#AAA730"/>
<path fill-rule="evenodd" clip-rule="evenodd" d="M32.0496 94.212C32.0496 94.212 35.7716 114.457 55.0055 119.104V119.083C55.0055 119.083 55.8941 118.502 57.3338 117.527C57.3323 117.551 57.3307 117.574 57.3291 117.598C62.9659 113.79 77.1224 103.893 79.3814 99.2463C81.6017 94.6881 81.1262 92.1024 80.813 91.191C80.7492 90.9938 80.6894 90.8637 80.6562 90.7982C80.8465 90.2907 85.9263 76.5499 82.3242 65.8139C82.2907 65.7129 82.2564 65.6122 82.2213 65.5117C78.3917 54.4963 71.8729 54.7329 71.8729 54.7329C71.8729 54.7329 59.8893 37.8871 51.6062 40.1246C43.3231 42.3621 24.2183 77.947 30.2854 80.2061C36.3525 82.4866 32.0496 94.212 32.0496 94.212Z" fill="#6AAC16"/>
<path d="M82.3287 85.0254C81.5326 88.4892 80.6506 90.7913 80.6506 90.7913C80.6506 90.7913 80.9087 91.2216 81.0163 92.1037C76.1755 95.8687 72.4966 97.8911 72.4966 97.8911C72.4966 97.8911 76.2401 95.3524 82.3072 85.0039L82.3287 85.0254Z" fill="#AAA730"/>
<path d="M72.4322 63.8335C73.8737 60.9936 75.853 59.1219 77.316 57.3577C79.0156 58.9282 80.8013 61.4669 82.2428 65.5547C86.0724 76.5271 80.6507 90.7912 80.6507 90.7912C80.6507 90.7912 82.2213 93.3944 79.3814 99.2248C78.3057 101.419 74.5621 104.797 70.3238 108.153C60.3841 103.033 62.4495 83.6699 72.4322 63.8335Z" fill="#97DF5F"/>
<path d="M67.5699 49.4619C67.2902 64.6942 57.7163 90.533 55.2421 91.2645C52.4668 92.0821 44.8291 64.0702 54.2094 40.0386C58.8135 40.684 64.02 45.5032 67.5699 49.4619Z" fill="url(#paint2_linear_227_995)"/>
<path d="M58.3188 104.711C59.8249 96.8797 61.4384 92.8135 61.4384 92.8135C61.4384 92.8135 59.0503 96.557 58.2543 98.859C57.4583 101.161 58.3188 104.711 58.3188 104.711Z" fill="#AAA730"/>
<path d="M64.7086 77.5382C63.9341 71.7292 65.6122 66.8455 65.6122 66.8455L65.935 72.181L64.6871 77.5597L64.7086 77.5382Z" fill="#AAA730"/>
<path d="M5.3719 65.8558C9.05087 95.3306 27.1876 107.228 52.6177 117.555C52.6177 117.555 55.5651 118.05 59.4593 117.555C63.3534 117.06 76.2621 88.8117 73.4652 79.582C70.6468 70.3738 67.936 66.953 67.936 66.953C67.936 66.953 79.7474 33.2183 64.5582 14.9526C58.4481 7.61612 49.5196 1.22632 46.0558 0C46.0558 0 19.1196 12.5214 15.8279 27.7106L18.926 27.5385C18.926 27.5385 18.5603 36.3164 14.1928 41.2432C9.82539 46.1485 4.36071 57.4436 5.41492 65.8343L5.3719 65.8558Z" fill="#6AAC16"/>
<path d="M69.4847 80.7007C64.5149 61.101 56.4685 55.6794 56.4685 55.6794C56.4685 55.6794 61.8041 56.1527 66.2575 60.4341C66.2575 60.4341 73.1422 42.448 69.915 24.8061C68.7102 21.2778 66.9675 17.943 64.5149 14.9955C58.4048 7.65909 49.4762 1.26929 46.0124 0.0429688C46.0124 0.0429688 19.0763 12.5644 15.7846 27.7536V33.6701C15.7846 33.6701 18.5169 36.3594 14.1495 41.2862C11.1375 44.664 7.6091 51.0968 6.06006 57.5081C7.52304 100.214 52.8755 109.466 52.8755 109.466L50.1217 105.894C50.1217 105.894 74.4761 100.322 69.4847 80.7222V80.7007Z" fill="#80C739"/>
<path d="M49.3044 87.9511C1.9295 85.1543 10.2126 40.3826 25.9181 39.5221C41.6237 38.6615 62.2776 60.929 64.5151 68.3945C66.7526 75.86 60.0186 88.5751 49.2829 87.9511H49.3044Z" fill="#97DF5F"/>
<path d="M64.5149 14.9955C58.4048 7.65909 49.4763 1.26929 46.0124 0.0429688C46.0124 0.0429688 40.5908 2.56016 34.3301 6.71246C27.2733 41.0711 50.552 59.7671 70.2592 43.201C70.9262 37.6072 71.0983 31.1744 69.915 24.7846C68.7102 21.2562 66.9675 17.9215 64.5149 14.974V14.9955Z" fill="#97DF5F"/>
<defs>
<linearGradient id="paint0_linear_227_995" x1="45.9266" y1="0.0430492" x2="38.3105" y2="141.522" gradientUnits="userSpaceOnUse">
<stop stop-color="#8C6239"/>
<stop offset="1" stop-color="#603813"/>
</linearGradient>
<linearGradient id="paint1_linear_227_995" x1="36.4769" y1="58.4117" x2="36.6073" y2="89.5647" gradientUnits="userSpaceOnUse">
<stop stop-color="#D6D247"/>
<stop offset="1" stop-color="#C1C142"/>
</linearGradient>
<linearGradient id="paint2_linear_227_995" x1="72.8105" y1="63.7323" x2="41.6991" y2="68.0473" gradientUnits="userSpaceOnUse">
<stop stop-color="#D6D247"/>
<stop offset="1" stop-color="#C1C142"/>
</linearGradient>
</defs>
</svg>
