<svg width="69" height="84" viewBox="0 0 69 84" fill="none" xmlns="http://www.w3.org/2000/svg">
<g id="Group">
<path id="Vector" d="M15.0342 63.8044L16.9182 78.5938C16.9182 81.3256 24.6426 83.5299 34.1568 83.5299C43.671 83.5299 51.3954 81.3256 51.3954 78.5938L53.2794 63.8044H15.0342Z" fill="url(#paint0_linear_227_1018)"/>
<path id="Vector_2" d="M0 33.7735C3.22164 55.1946 13.8286 72.5086 31.9338 72.9231C40.3176 73.1115 44.4247 75.5795 44.4247 75.5795C44.4247 75.5795 56.9345 73.0173 61.2488 65.2175C61.2488 65.2175 60.8344 60.4322 62.0024 58.0583C63.1705 55.6845 74.7571 32.0403 63.2647 16.5726C51.7723 1.10498 36.3612 0.445587 32.6874 0.0122666C29.0136 -0.421053 19.1603 10.7699 19.1603 10.7699L19.424 7.41638C19.424 7.41638 -3.78684 14.7451 2.50572 34.4141L0.018844 33.7547L0 33.7735Z" fill="#6AAC16"/>
<path id="Vector_3" d="M63.2647 16.5912C51.7723 1.12359 36.3612 0.464187 32.6874 0.0308665C31.9338 -0.0633336 30.9353 0.332307 29.8049 1.01055C18.7458 8.84799 13.2068 7.19007 13.2068 7.19007C13.2068 7.19007 14.0923 19.3607 14.6575 13.8218C11.2663 18.852 4.59696 9.48855 2.52456 17.5332C3.78684 25.2011 6.38676 32.7183 11.417 37.7297C7.83744 36.524 4.65348 34.4327 1.7898 31.6632C1.9782 32.5864 2.20428 33.5096 2.48688 34.4327L0 33.7733C0.13188 34.5834 0.263766 35.3936 0.395646 36.2037C19.4994 67.7607 49.5304 69.9838 49.5304 69.9838L42.8422 65.481C42.8422 65.481 51.5839 71.0765 59.6474 62.9565C60.175 62.429 60.7025 61.8449 61.2488 61.2232C61.343 60.0928 61.5691 58.9247 61.9836 58.0769C63.1517 55.7031 74.7383 32.0589 63.2459 16.5912H63.2647Z" fill="#80C739"/>
<path id="Vector_4" d="M68.2949 33.604C68.3326 27.7448 67.0703 21.716 63.2646 16.5915C51.7722 1.12385 36.3611 0.46445 32.6873 0.0311296C31.9902 -0.0442305 31.0482 0.294892 29.9932 0.916612C5.31276 39.6893 22.0615 41.5357 51.4519 41.1589C60.4009 41.0458 65.5442 37.9749 68.2949 33.6229V33.604Z" fill="#97DF5F"/>
<path id="Vector_5" d="M62.0024 58.0584C62.5864 56.8714 65.8458 50.2209 67.4283 41.969C45.8942 49.4108 17.54 33.6229 15.7879 42.0632C14.5444 48.0167 21.2892 56.1367 37.8307 60.6206C51.3578 64.2944 61.5879 58.9062 62.0024 58.0584Z" fill="#97DF5F"/>
</g>
<defs>
<linearGradient id="paint0_linear_227_1018" x1="35.7017" y1="-34.2766" x2="29.0323" y2="89.6152" gradientUnits="userSpaceOnUse">
<stop stop-color="#8C6239"/>
<stop offset="1" stop-color="#603813"/>
</linearGradient>
</defs>
</svg>
