<svg xmlns="http://www.w3.org/2000/svg" width="137" height="22" viewBox="0 0 137 22" fill="none">
<path d="M129.984 21.2414C128.414 21.2414 127.037 20.9235 125.852 20.2877C124.667 19.6422 123.742 18.7463 123.077 17.6C122.422 16.4536 122.095 15.1194 122.095 13.5973C122.095 12.4798 122.283 11.4539 122.658 10.5194C123.044 9.585 123.583 8.77579 124.277 8.09183C124.98 7.39822 125.799 6.86357 126.733 6.48787C127.677 6.11217 128.708 5.92432 129.826 5.92432C131.039 5.92432 132.123 6.14107 133.077 6.57457C134.03 6.99844 134.82 7.60052 135.447 8.38083C136.082 9.1515 136.526 10.057 136.776 11.0974C137.036 12.1282 137.07 13.2553 136.877 14.4787H125.577C125.568 15.2398 125.746 15.9045 126.112 16.4729C126.488 17.0412 127.017 17.4892 127.701 17.8167C128.395 18.1346 129.209 18.2936 130.143 18.2936C130.972 18.2936 131.767 18.1731 132.528 17.9323C133.289 17.6915 133.997 17.335 134.652 16.863L135.952 19.4496C135.5 19.8156 134.936 20.1335 134.262 20.4033C133.587 20.673 132.874 20.8801 132.123 21.0246C131.381 21.1691 130.668 21.2414 129.984 21.2414ZM125.794 11.8488H133.294C133.265 10.8759 132.942 10.1148 132.325 9.56573C131.709 9.007 130.847 8.72763 129.739 8.72763C128.641 8.72763 127.735 9.007 127.022 9.56573C126.309 10.1148 125.9 10.8759 125.794 11.8488Z" fill="white"/>
<path d="M113.272 20.8082L107.969 6.35815H111.986L115.671 17.6292H115.179L118.792 6.35815H122.708L117.535 20.8082H113.272Z" fill="white"/>
<path d="M100.672 21.2414C99.1304 21.2414 97.7625 20.8946 96.5679 20.201C95.383 19.4977 94.4534 18.5681 93.7791 17.4121C93.1047 16.2465 92.7676 14.9701 92.7676 13.5828C92.7676 12.5617 92.9602 11.5887 93.3456 10.6639C93.7309 9.73913 94.2752 8.92511 94.9784 8.22187C95.6913 7.50901 96.5294 6.95027 97.4928 6.54567C98.4561 6.13143 99.5158 5.92432 100.672 5.92432C102.203 5.92432 103.562 6.27112 104.747 6.96472C105.941 7.65832 106.876 8.58794 107.55 9.75358C108.234 10.9192 108.576 12.1956 108.576 13.5828C108.576 14.604 108.378 15.577 107.983 16.5018C107.598 17.4169 107.054 18.2309 106.351 18.9438C105.647 19.6567 104.814 20.2202 103.851 20.6345C102.887 21.0391 101.828 21.2414 100.672 21.2414ZM100.672 18.0046C101.481 18.0046 102.203 17.8263 102.839 17.4699C103.485 17.1038 103.99 16.5933 104.357 15.9382C104.723 15.2735 104.906 14.4884 104.906 13.5828C104.906 12.6773 104.723 11.8922 104.357 11.2275C103.99 10.5628 103.49 10.0522 102.854 9.69578C102.218 9.33935 101.491 9.16113 100.672 9.16113C99.8529 9.16113 99.1208 9.33935 98.4754 9.69578C97.8396 10.0522 97.3386 10.5628 96.9725 11.2275C96.6161 11.8922 96.4379 12.6773 96.4379 13.5828C96.4379 14.4884 96.6209 15.2735 96.987 15.9382C97.3531 16.5933 97.854 17.1038 98.4898 17.4699C99.1256 17.8263 99.8529 18.0046 100.672 18.0046Z" fill="white"/>
<path d="M80.2451 20.8082V0.578125H84.0021V17.3691H92.5855V20.8082H80.2451Z" fill="white"/>
<path d="M64.1592 20.8079V6.35786H67.8584V8.25082C68.3593 7.40308 68.9855 6.801 69.7369 6.44456C70.4979 6.08813 71.3168 5.90991 72.1934 5.90991C72.5017 5.90991 72.7859 5.92436 73.046 5.95326C73.3061 5.98216 73.5565 6.02551 73.7974 6.08331L73.335 9.89813C73.0363 9.79216 72.7232 9.71509 72.3957 9.66693C72.0778 9.60913 71.7599 9.58023 71.442 9.58023C70.4016 9.58023 69.5442 9.89331 68.8699 10.5195C68.1956 11.136 67.8584 12.003 67.8584 13.1205V20.8079H64.1592Z" fill="white"/>
<path d="M54.9442 21.2414C53.4029 21.2414 52.0349 20.8946 50.8404 20.201C49.6555 19.4977 48.7259 18.5681 48.0515 17.4121C47.3772 16.2465 47.04 14.9701 47.04 13.5828C47.04 12.5617 47.2327 11.5887 47.618 10.6639C48.0034 9.73913 48.5477 8.92511 49.2509 8.22187C49.9638 7.50901 50.8019 6.95027 51.7652 6.54567C52.7285 6.13143 53.7882 5.92432 54.9442 5.92432C56.4759 5.92432 57.8342 6.27112 59.0191 6.96472C60.2137 7.65832 61.1481 8.58794 61.8224 9.75358C62.5064 10.9192 62.8484 12.1956 62.8484 13.5828C62.8484 14.604 62.6509 15.577 62.2559 16.5018C61.8706 17.4169 61.3263 18.2309 60.6231 18.9438C59.9199 19.6567 59.0866 20.2202 58.1232 20.6345C57.1599 21.0391 56.1002 21.2414 54.9442 21.2414ZM54.9442 18.0046C55.7534 18.0046 56.4759 17.8263 57.1117 17.4699C57.7572 17.1038 58.2629 16.5933 58.629 15.9382C58.9951 15.2735 59.1781 14.4884 59.1781 13.5828C59.1781 12.6773 58.9951 11.8922 58.629 11.2275C58.2629 10.5628 57.762 10.0522 57.1262 9.69578C56.4904 9.33935 55.7631 9.16113 54.9442 9.16113C54.1254 9.16113 53.3932 9.33935 52.7478 9.69578C52.112 10.0522 51.6111 10.5628 51.245 11.2275C50.8886 11.8922 50.7104 12.6773 50.7104 13.5828C50.7104 14.4884 50.8934 15.2735 51.2595 15.9382C51.6255 16.5933 52.1265 17.1038 52.7623 17.4699C53.3981 17.8263 54.1254 18.0046 54.9442 18.0046Z" fill="white"/>
<path d="M39.5636 21.2416C38.6195 21.2416 37.767 21.1019 37.0059 20.8225C36.2449 20.5432 35.585 20.1578 35.0263 19.6665C34.4676 19.1752 34.0292 18.6069 33.7113 17.9614L34.2315 17.1378V20.8081H30.9658V0H34.6506V9.66709L33.8558 8.82898C34.5013 7.92345 35.2912 7.21539 36.2256 6.70483C37.1697 6.18462 38.2631 5.92452 39.5058 5.92452C40.9315 5.92452 42.1935 6.26651 43.2917 6.95048C44.3899 7.62481 45.2473 8.5448 45.8638 9.71044C46.4804 10.8664 46.7886 12.1573 46.7886 13.5831C46.7886 14.6909 46.6104 15.7168 46.254 16.6609C45.8975 17.5953 45.3966 18.4046 44.7512 19.0885C44.1057 19.7725 43.3399 20.3023 42.4536 20.678C41.577 21.0537 40.6136 21.2416 39.5636 21.2416ZM38.8845 18.0048C39.6937 18.0048 40.4162 17.8266 41.052 17.4701C41.6974 17.104 42.2031 16.5935 42.5692 15.9384C42.9353 15.2737 43.1183 14.4886 43.1183 13.5831C43.1183 12.6775 42.9353 11.8924 42.5692 11.2277C42.2031 10.563 41.7022 10.0524 41.0664 9.69599C40.4306 9.33955 39.7033 9.16133 38.8845 9.16133C38.0656 9.16133 37.3335 9.33955 36.688 9.69599C36.0522 10.0524 35.5513 10.563 35.1852 11.2277C34.8288 11.8924 34.6506 12.6775 34.6506 13.5831C34.6506 14.4886 34.8336 15.2737 35.1997 15.9384C35.5658 16.5935 36.0667 17.104 36.7025 17.4701C37.3383 17.8266 38.0656 18.0048 38.8845 18.0048Z" fill="white"/>
<path d="M20.5078 20.8079V6.35786H24.207V8.25082C24.708 7.40308 25.3341 6.801 26.0855 6.44456C26.8466 6.08813 27.6654 5.90991 28.542 5.90991C28.8503 5.90991 29.1345 5.92436 29.3946 5.95326C29.6547 5.98216 29.9052 6.02551 30.146 6.08331L29.6836 9.89813C29.385 9.79216 29.0719 9.71509 28.7443 9.66693C28.4264 9.60913 28.1085 9.58023 27.7906 9.58023C26.7502 9.58023 25.8929 9.89331 25.2185 10.5195C24.5442 11.136 24.207 12.003 24.207 13.1205V20.8079H20.5078Z" fill="white"/>
<path d="M0 20.8082L7.75968 0.578125H11.9502L19.8688 20.8082H15.635L13.9154 16.2275H5.78002L4.11827 20.8082H0ZM6.70482 13.0341H12.9617L9.78269 4.82644L6.70482 13.0341Z" fill="white"/>
</svg>