<svg width="31" height="25" viewBox="0 0 31 25" fill="none" xmlns="http://www.w3.org/2000/svg">
<path id="Vector" d="M26.35 3.125H23.8917L22.3417 1.5625C21.4442 0.657812 19.8694 0 18.6 0H12.4C11.1305 0 9.55575 0.657812 8.6583 1.5625L7.1083 3.125H4.65C2.0863 3.125 0 5.22813 0 7.8125V20.3125C0 22.8969 2.0863 25 4.65 25H26.35C28.9137 25 31 22.8969 31 20.3125V7.8125C31 5.22813 28.9137 3.125 26.35 3.125ZM15.5 18.75C12.5038 18.75 10.075 16.3 10.075 13.2812C10.075 10.2594 12.5038 7.8125 15.5 7.8125C18.4961 7.8125 20.925 10.2594 20.925 13.2812C20.925 16.3 18.4961 18.75 15.5 18.75ZM24.8 11.4047C23.6855 11.4047 22.785 10.4984 22.785 9.375C22.785 8.25156 23.6855 7.34219 24.8 7.34219C25.9144 7.34219 26.815 8.25156 26.815 9.375C26.815 10.4984 25.9144 11.4047 24.8 11.4047Z" fill="#15B427"/>
</svg>
