<svg width="410" height="211" viewBox="0 0 410 211" fill="none" xmlns="http://www.w3.org/2000/svg">
<g clip-path="url(#clip0_227_220)">
<g opacity="0.33">
<path d="M184.711 137.506L156.187 108.945L127.673 137.506H127.544V206.349H184.831V137.506H184.711Z" fill="#A35F52"/>
<path d="M171.27 170.369H141.095V192.876H171.27V170.369Z" fill="#BF867B"/>
<path d="M117.294 148.958L156.187 110L194.723 148.59L197.159 146.16L156.267 105.2L156.187 105.28L156.108 105.2L114.858 146.518L117.294 148.958Z" fill="#7C534A"/>
<path d="M162.59 128.603H150.729L140.956 138.392V151.318H171.419V137.446L162.59 128.603Z" fill="#BF867B"/>
<path d="M172.413 170.369H139.972V171.594H172.413V170.369Z" fill="#7C534A"/>
<path d="M163.077 128.244H149.546V129.39H163.077V128.244Z" fill="#7C534A"/>
<path d="M149.528 128.261L139.967 137.838L140.832 138.704L150.393 129.127L149.528 128.261Z" fill="#7C534A"/>
<path d="M172.664 137.846L163.103 128.269L162.238 129.135L171.799 138.712L172.664 137.846Z" fill="#7C534A"/>
<path d="M172.413 181.005H139.972V182.23H172.413V181.005Z" fill="#7C534A"/>
<path d="M156.794 193.393V170.369H155.571V193.393H156.794Z" fill="#7C534A"/>
<path d="M172.493 193.393V170.369H171.27V193.393H172.493Z" fill="#7C534A"/>
<path d="M141.185 193.393V170.369H139.962V193.393H141.185Z" fill="#7C534A"/>
<path d="M172.413 139.537H139.972V140.762H172.413V139.537Z" fill="#7C534A"/>
<path d="M156.794 151.926V128.902H155.571V151.926H156.794Z" fill="#7C534A"/>
<path d="M172.493 151.926V137.824H171.27V151.926H172.493Z" fill="#7C534A"/>
<path d="M141.185 151.926V137.824H139.962V151.926H141.185Z" fill="#7C534A"/>
<path d="M173.904 192.258H138.48V193.483H173.904V192.258Z" fill="#7C534A"/>
<path d="M172.413 150.711H139.972V151.936H172.413V150.711Z" fill="#7C534A"/>
<path d="M72.2276 89.5185L69.8574 91.6592L81.6217 104.728L83.9919 102.587L72.2276 89.5185Z" fill="#7C534A"/>
<path d="M79.4701 102.589L81.8403 104.73L93.6046 91.6612L91.2344 89.5205L79.4701 102.589Z" fill="#7C534A"/>
<path d="M83.3213 77.0771H80.1299V206.997H83.3213V77.0771Z" fill="#9B4B38"/>
<path d="M64.3418 89.5255V92.7222H99.0498V89.5255H64.3418Z" fill="#9B4B38"/>
<path d="M277.171 89.507L274.8 91.6477L286.565 104.716L288.935 102.576L277.171 89.507Z" fill="#7C534A"/>
<path d="M284.412 102.578L286.782 104.719L298.546 91.6497L296.176 89.5091L284.412 102.578Z" fill="#7C534A"/>
<path d="M288.259 77.0771H285.067V206.997H288.259V77.0771Z" fill="#9B4B38"/>
<path d="M269.289 89.5255V92.7222H303.997V89.5255H269.289Z" fill="#9B4B38"/>
</g>
<path d="M188.25 132.258C188.698 158.399 189.205 188.036 188.41 205.264L191.84 205.324C191.382 188.544 190.05 158.399 189.603 132.228" fill="#6B382A"/>
<path d="M203.492 89.2564C201.702 86.5676 192.645 84.9045 192.645 84.9045C192.645 84.9045 197.626 83.6298 199.793 84.5161C201.961 85.4024 203.492 89.2464 203.492 89.2464V89.2564Z" fill="#97DF5F"/>
<path d="M187.684 165.689C186.859 165.39 186.054 165.041 185.288 164.603C184.532 164.155 183.807 163.667 183.141 163.109C181.798 161.994 180.645 160.679 179.661 159.265C178.677 157.841 177.841 156.328 177.145 154.764C176.45 153.191 175.863 151.577 175.445 149.894C175.416 149.775 175.485 149.665 175.604 149.635C175.714 149.605 175.833 149.675 175.863 149.785C176.3 151.418 176.917 153.011 177.623 154.535C178.339 156.069 179.194 157.533 180.168 158.897C181.162 160.251 182.295 161.496 183.598 162.532C184.244 163.06 184.94 163.508 185.666 163.906C186.392 164.304 187.157 164.623 187.933 164.882H187.943C188.161 164.962 188.281 165.201 188.211 165.43C188.132 165.649 187.893 165.768 187.674 165.699L187.684 165.689Z" fill="#7C362D"/>
<path d="M190.06 157.094C190.488 157.991 190.886 158.897 191.214 159.833C191.542 160.769 191.83 161.715 192.069 162.671C192.307 163.627 192.516 164.603 192.685 165.579C192.844 166.555 192.983 167.531 193.063 168.537C193.083 168.776 192.904 168.975 192.675 168.995C192.436 169.015 192.238 168.835 192.218 168.606C192.218 168.606 192.218 168.596 192.218 168.586C192.178 167.62 192.088 166.645 191.969 165.679C191.84 164.713 191.681 163.757 191.482 162.801C191.283 161.845 191.035 160.908 190.746 159.982C190.468 159.046 190.11 158.15 189.722 157.254C189.683 157.154 189.722 157.035 189.822 156.995C189.921 156.955 190.03 156.995 190.07 157.084L190.06 157.094Z" fill="#7C362D"/>
<path d="M188.758 173.207C190.04 172.291 191.015 170.917 191.82 169.493C192.605 168.049 193.242 166.505 193.769 164.922C194.296 163.338 194.733 161.725 195.101 160.102C195.469 158.469 195.767 156.826 195.986 155.172C195.996 155.063 196.095 154.993 196.195 155.003C196.294 155.013 196.374 155.113 196.354 155.212C196.175 156.895 195.906 158.548 195.578 160.202C195.25 161.855 194.842 163.498 194.345 165.111C193.848 166.724 193.242 168.318 192.456 169.831C192.059 170.588 191.611 171.325 191.084 172.012C190.557 172.7 189.961 173.347 189.245 173.885C189.056 174.024 188.788 173.984 188.648 173.795C188.509 173.606 188.549 173.337 188.738 173.197L188.758 173.207Z" fill="#7C362D"/>
<path d="M189.652 204.417C189.881 197.138 189.712 189.848 189.264 182.578C188.797 175.309 188.071 168.049 187.047 160.829C186.918 159.923 186.789 159.026 186.64 158.13L186.421 156.786C186.341 156.337 186.282 155.879 186.212 155.421L185.447 149.994C184.94 146.369 184.572 142.714 184.582 139.029V138.342L184.602 137.655L184.661 136.281C184.681 135.823 184.741 135.365 184.771 134.907C184.81 134.448 184.85 133.99 184.9 133.532L185.099 132.168C185.168 131.71 185.218 131.252 185.317 130.804L185.586 129.449L185.725 128.772C185.775 128.543 185.834 128.324 185.894 128.105C186.759 124.53 188.052 121.074 189.593 117.738C189.672 117.569 189.881 117.489 190.05 117.569C190.219 117.648 190.298 117.857 190.219 118.027C188.708 121.323 187.455 124.749 186.61 128.274C186.56 128.493 186.491 128.712 186.451 128.931L186.322 129.599L186.063 130.933C185.964 131.371 185.924 131.829 185.854 132.277L185.665 133.622C185.616 134.07 185.586 134.528 185.546 134.976C185.516 135.424 185.457 135.873 185.447 136.331L185.397 137.685L185.377 138.362V139.039C185.387 142.664 185.775 146.279 186.282 149.884L187.067 155.292C187.137 155.74 187.197 156.188 187.276 156.636L187.495 157.991C187.644 158.897 187.773 159.793 187.912 160.699C188.966 167.939 189.722 175.209 190.219 182.509C190.686 189.808 190.885 197.128 190.686 204.447C190.686 204.726 190.448 204.955 190.159 204.945C189.881 204.945 189.652 204.706 189.662 204.417H189.652Z" fill="#7C362D"/>
<path d="M165.453 124.958C165.453 143.799 175.912 152.712 191.074 161.227C191.074 161.227 193.162 158.219 195.648 158.219C198.133 158.219 208.195 144.994 207.151 138.97C206.107 132.945 204.665 130.584 204.665 130.584C204.665 130.584 214.746 110.279 206.624 97.5916C203.353 92.4829 198.252 87.7725 196.165 86.7268C196.165 86.7268 178.259 92.4928 174.988 101.784L176.946 101.914C176.946 101.914 176.032 107.411 172.89 110.159C169.748 112.908 165.443 119.59 165.443 124.958H165.453Z" fill="#6AAC16"/>
<path d="M204.586 139.348C202.995 126.621 198.372 122.568 198.372 122.568C198.372 122.568 201.693 123.295 204.148 126.332C204.148 126.332 209.895 115.557 209.249 104.194C208.771 101.874 207.936 99.6334 206.624 97.5919C203.353 92.4831 198.253 87.7727 196.165 86.7271C196.165 86.7271 178.259 92.4931 174.988 101.784L176.947 101.914C176.947 101.914 176.032 107.411 172.89 110.16C170.733 112.052 168.009 115.816 166.527 119.73C164.091 146.728 191.87 156.128 191.87 156.128L190.428 153.669C190.428 153.669 206.167 152.075 204.576 139.348H204.586Z" fill="#80C739"/>
<path d="M191.332 142.316C161.774 136.829 170.504 109.293 180.446 109.99C190.388 110.687 201.613 126.332 202.438 131.212C203.263 136.092 198.023 143.571 191.332 142.326V142.316Z" fill="#97DF5F"/>
<path d="M173.109 122.707C173.109 122.707 168.774 134.279 172.96 145.702C176.738 149.894 180.754 152.623 185.159 153.151C171.727 144.327 172.81 131.819 173.099 122.707H173.109Z" fill="#6AAC16"/>
<path d="M192.914 167.093C199.525 167.73 200.44 162.243 200.44 162.243L199.127 162.372L201.484 160.839C201.484 160.839 198.024 160.052 196.045 161.128C194.067 162.213 192.914 167.093 192.914 167.093Z" fill="#6AAC16"/>
<path d="M196.055 161.118C195.717 161.307 195.399 161.606 195.111 161.974C194.226 164.992 194.862 166.296 194.862 166.296L197.029 164.992L196.741 165.808C196.741 165.808 198.521 165.081 199.724 164.075C200.3 163.079 200.449 162.233 200.449 162.233L199.137 162.362L201.493 160.829C201.493 160.829 198.034 160.042 196.055 161.118Z" fill="#80C739"/>
<path d="M175.127 150.163C173.526 148.689 170.543 148.122 170.543 148.122C170.543 148.122 170.931 149.337 172.601 150.243C174.272 151.149 175.127 150.163 175.127 150.163Z" fill="#6AAC16"/>
<path d="M206.634 97.5819C203.363 92.4731 198.263 87.7627 196.175 86.717C196.175 86.717 192.576 87.8722 188.311 89.9934C181.172 111.066 194.335 124.679 208.016 115.806C208.881 112.331 209.487 108.297 209.249 104.194C208.771 101.874 207.936 99.6333 206.624 97.5918L206.634 97.5819Z" fill="#97DF5F"/>
<path d="M187.783 111.912C193.908 114.332 194.961 119.471 194.961 119.471C194.961 119.471 192.367 116.434 190.696 115.009C189.026 113.585 187.783 111.912 187.783 111.912Z" fill="#6AAC16"/>
<path d="M255.857 123.255C256.345 151.916 257.786 184.949 258.283 203.322L254.565 203.252C255.43 184.371 254.883 151.916 254.396 123.275" fill="#9B4B38"/>
<path d="M254.396 123.275C254.883 151.916 255.44 184.371 254.565 203.252L258.283 203.322C257.786 184.949 256.345 151.916 255.857 123.255" fill="#6B382A"/>
<path d="M245.806 155.84C243.36 155.571 240.854 155.322 240.854 155.322C240.854 155.322 242.525 157.134 244.911 157.732C247.297 158.339 247.774 157.612 247.774 157.612C247.774 157.612 246.979 155.959 245.806 155.83V155.84Z" fill="#6AAC16"/>
<path d="M243.479 154.356C239.9 153.997 235.605 152.792 235.605 152.792C235.605 152.792 237.872 151.468 240.974 151.946C244.076 152.424 243.479 154.356 243.479 154.356Z" fill="#6AAC16"/>
<path d="M261.256 162.89C262.439 159.992 265.074 161.038 265.074 161.038C265.074 161.038 264.477 162.094 263.423 162.92C262.37 163.747 261.246 162.88 261.246 162.88L261.256 162.89Z" fill="#6AAC16"/>
<path d="M262.807 158.1C264.954 153.758 269.726 153.4 269.726 153.4C269.726 153.4 268.653 155.093 266.744 156.776C264.835 158.469 262.807 158.1 262.807 158.1Z" fill="#6AAC16"/>
<path d="M256.911 148.351C257.478 149.874 258.065 151.398 258.691 152.902C258.999 153.649 259.327 154.396 259.665 155.133C260.003 155.859 260.361 156.616 260.749 157.284V157.303C260.848 157.453 260.799 157.652 260.65 157.742C260.5 157.831 260.302 157.781 260.212 157.632C259.795 156.875 259.486 156.138 259.158 155.381C258.84 154.625 258.532 153.868 258.244 153.101C257.657 151.577 257.12 150.034 256.593 148.48C256.563 148.391 256.613 148.281 256.703 148.251C256.792 148.221 256.891 148.271 256.931 148.361L256.911 148.351Z" fill="#7C362D"/>
<path d="M248.55 147.534C248.61 148.779 248.649 150.024 248.629 151.269C248.629 151.896 248.6 152.514 248.56 153.141C248.51 153.778 248.47 154.376 248.311 155.043C248.272 155.212 248.102 155.322 247.924 155.282C247.755 155.242 247.645 155.073 247.685 154.894C247.685 154.894 247.685 154.894 247.685 154.884V154.854C247.834 154.316 247.914 153.679 247.983 153.081C248.043 152.474 248.093 151.856 248.122 151.239C248.182 150.004 248.192 148.769 248.182 147.534C248.182 147.435 248.262 147.355 248.361 147.355C248.46 147.355 248.54 147.435 248.54 147.524L248.55 147.534Z" fill="#7C362D"/>
<path d="M239.592 144.327C242.425 147.783 245.199 151.288 247.894 154.844C249.246 156.626 250.578 158.419 251.9 160.221C253.223 162.034 254.515 163.846 255.798 165.688C255.967 165.927 255.907 166.256 255.668 166.425C255.43 166.595 255.102 166.535 254.933 166.296C253.71 164.434 252.457 162.581 251.184 160.759C249.912 158.927 248.629 157.104 247.317 155.302C244.702 151.687 242.018 148.122 239.274 144.606C239.204 144.517 239.214 144.377 239.304 144.297C239.393 144.228 239.532 144.238 239.602 144.327H239.592Z" fill="#7C362D"/>
<path d="M263.284 137.775C263.324 140.683 263.115 143.59 262.797 146.478C262.449 149.366 261.972 152.235 261.425 155.083C260.858 157.931 260.202 160.759 259.486 163.567C258.76 166.376 257.985 169.174 257.1 171.953C257.01 172.231 256.712 172.381 256.434 172.291C256.155 172.201 256.006 171.903 256.096 171.624C257.01 168.895 257.836 166.117 258.601 163.338C259.357 160.55 260.053 157.752 260.669 154.933C261.266 152.105 261.783 149.267 262.18 146.409C262.548 143.551 262.797 140.673 262.807 137.785C262.807 137.645 262.916 137.536 263.045 137.536C263.175 137.536 263.284 137.645 263.284 137.775Z" fill="#7C362D"/>
<path d="M256.792 201.978C256.911 198.014 256.971 194.061 256.921 190.097C256.852 186.134 256.692 182.18 256.414 178.227C255.867 170.319 254.803 162.462 253.392 154.665L252.855 151.737C252.676 150.761 252.467 149.795 252.328 148.799C251.98 146.827 251.791 144.835 251.652 142.844C251.383 138.86 251.403 134.877 251.542 130.903C251.831 122.946 252.566 115.029 253.63 107.152C253.65 106.983 253.809 106.873 253.968 106.893C254.127 106.913 254.247 107.072 254.227 107.232C253.203 115.089 252.507 123.006 252.258 130.923C252.139 134.877 252.139 138.85 252.427 142.784C252.576 144.756 252.775 146.718 253.123 148.65C253.262 149.616 253.481 150.601 253.67 151.567L254.227 154.495C255.678 162.313 256.782 170.2 257.369 178.137C257.667 182.1 257.846 186.084 257.935 190.057C258.005 194.031 257.965 198.014 257.866 201.988C257.866 202.277 257.617 202.516 257.329 202.506C257.04 202.506 256.812 202.257 256.822 201.958L256.792 201.978Z" fill="#7C362D"/>
<path d="M218.306 107.57C222.78 132.536 233.736 151.976 250.349 150.801C258.044 150.263 261.981 152.792 261.981 152.792C261.981 152.792 273.256 148.63 276.656 139.039C276.656 139.039 275.94 133.433 276.835 130.535C277.73 127.637 286.678 98.6972 275.045 81.5087C263.413 64.3202 245.865 45.3291 242.465 45.1499C239.065 44.9706 230.833 59.0819 230.833 59.0819V55.0985C230.833 55.0985 213.474 85.4921 220.632 108.098L218.306 107.56V107.57Z" fill="#6AAC16"/>
<path d="M275.045 81.5188C263.413 64.3302 245.865 45.3392 242.465 45.16C241.769 45.1201 240.884 45.6778 239.9 46.584C230.326 56.8414 228.506 75.0058 228.506 75.0058C228.506 75.0058 226.806 69.6382 226.925 63.0655C224.181 69.2996 220.771 78.5013 219.459 88.181C221.159 97.1039 224.072 105.728 229.043 111.185C225.673 110.08 222.611 107.909 219.787 104.921C220.016 105.997 220.294 107.063 220.632 108.108L218.306 107.57C218.475 108.526 218.654 109.463 218.843 110.399C238.598 145.871 266.276 145.742 266.276 145.742L259.834 141.041C259.834 141.041 268.245 146.827 275.045 136.52C275.483 135.853 275.94 135.116 276.388 134.329C276.398 132.975 276.517 131.591 276.835 130.555C277.73 127.657 286.678 98.7172 275.045 81.5287V81.5188Z" fill="#80C739"/>
<path d="M264.835 63.9119C278.794 71.7493 279.748 85.6216 279.748 85.6216C275.741 77.2962 270.91 69.9169 264.835 63.9119Z" fill="#97DF5F"/>
<path d="M217.51 104.712C216.337 100.649 216.496 97.1834 216.258 91.7759C216.258 91.7759 214.18 96.6556 213.872 99.673C213.563 102.69 217.51 104.702 217.51 104.702V104.712Z" fill="#6AAC16"/>
<path d="M280.872 101.127C280.494 94.2157 278.903 87.2248 275.046 81.5185C263.413 64.33 245.866 45.339 242.465 45.1597C241.809 45.1299 240.984 45.6178 240.059 46.4444C220.195 94.4149 239.055 114.691 265.959 111.554C274.141 110.598 278.635 106.525 280.872 101.137V101.127Z" fill="#97DF5F"/>
<path d="M276.835 130.545C277.292 129.081 279.798 120.965 280.663 111.066C261.464 121.821 234.342 105.778 233.338 115.896C232.632 123.036 239.373 131.989 254.863 135.773C267.529 138.87 276.517 131.58 276.835 130.545Z" fill="#97DF5F"/>
<path d="M332.521 21.4882L288.288 20.2334L266.296 25.2724C299.095 31.5663 339.938 29.0467 339.938 29.0467C339.938 29.0467 389.947 30.9389 395.604 26.5272C401.261 22.1156 332.521 21.4882 332.521 21.4882Z" fill="#5A8D4E"/>
<path d="M334.917 41.8835L316.574 43.7757L301.999 48.3068C316.077 53.4654 333.416 49.5616 339.818 49.3127C346.221 49.0637 363.063 50.0695 368.213 47.1716C373.363 44.2736 334.917 41.8835 334.917 41.8835Z" fill="#5A8D4E"/>
<path d="M329.26 81.5287C334.37 87.0656 351.799 84.8051 356.153 79.9353L329.26 81.5287Z" fill="#5A8D4E"/>
<path d="M335.066 40.3599C335.036 40.2603 331.865 29.764 331.696 19.2477L332.68 19.2278C332.849 29.6146 335.981 39.9616 336.011 40.0711L335.066 40.3599Z" fill="#9B4B38"/>
<path d="M321.485 58.3749L320.531 58.126C323.305 47.3806 331.04 42.242 337.87 37.7109C344.104 33.5681 349.492 29.993 350.347 23.1116L351.322 23.2311C350.417 30.5606 344.591 34.4245 338.417 38.5275C331.736 42.959 324.17 47.9881 321.485 58.365V58.3749Z" fill="#9B4B38"/>
<path d="M318.811 45.7175C317.797 42.2519 314.426 39.5631 310.509 36.456C305.618 32.5722 300.08 28.1605 297.535 20.9107L298.459 20.582C300.905 27.573 306.324 31.885 311.116 35.6892C315.162 38.9058 318.652 41.6843 319.745 45.4486L318.801 45.7275L318.811 45.7175Z" fill="#9B4B38"/>
<path d="M339.799 94.5346L338.824 94.3852C338.834 94.2956 340.177 85.3428 338.705 79.2183L339.66 78.9893C341.171 85.303 339.848 94.1661 339.789 94.5346H339.799Z" fill="#9B4B38"/>
<path d="M322.738 110.687L321.873 110.219C324.736 104.931 329.628 101.296 334.37 97.781C340.703 93.0905 346.689 88.6489 347.872 80.6721L348.846 80.8215C347.593 89.2066 341.171 93.9768 334.957 98.5777C330.304 102.023 325.492 105.598 322.738 110.687Z" fill="#9B4B38"/>
<path d="M346.619 53.027C345.814 53.027 344.949 52.9872 344.044 52.9175L344.123 51.9316C355.587 52.8976 358.44 46.9921 358.46 46.9324L359.355 47.3407C359.236 47.5896 356.621 53.027 346.609 53.027H346.619Z" fill="#9B4B38"/>
<path d="M335.603 58.3551C335.424 54.8098 334.758 51.6131 333.923 47.55C333.535 45.6678 333.088 43.5367 332.66 41.1666L333.625 40.9873C334.052 43.3475 334.49 45.4687 334.877 47.3508C335.722 51.4438 336.398 54.6804 336.577 58.3053L335.593 58.3551H335.603Z" fill="#9B4B38"/>
<path d="M323.066 68.9808L322.201 68.5028C324.766 63.8721 329.797 61.0339 334.659 58.2953C341.002 54.7201 346.997 51.3442 347.275 44.3931L348.26 44.4329C347.961 51.9317 341.449 55.6064 335.146 59.1617C330.403 61.8405 325.492 64.599 323.066 68.9908V68.9808Z" fill="#9B4B38"/>
<path d="M315.411 89.6547L314.446 89.4356C314.456 89.3758 315.808 83.1716 314.774 74.8363L315.749 74.7168C316.813 83.2314 315.46 89.3958 315.401 89.6547H315.411Z" fill="#9B4B38"/>
<path d="M321.923 95.5403C321.515 95.3611 311.802 91.0789 306.095 75.1152L307.019 74.7866C312.567 90.3121 322.211 94.5942 322.31 94.6341L321.923 95.5403Z" fill="#9B4B38"/>
<path d="M325.741 205.383L321.983 205.314C322.858 186.432 322.301 153.977 321.814 125.336C321.466 105.19 321.167 87.8025 321.485 80.2041C321.843 71.5999 320.66 61.2429 319.507 51.2346C318.234 40.1507 317.041 29.6842 317.966 22.2451L319.427 22.4244C318.523 29.6941 319.706 40.071 320.969 51.0653C322.122 61.1334 323.315 71.5401 322.947 80.2638C322.629 87.8224 322.927 105.19 323.275 125.316C323.772 153.977 325.224 187.01 325.721 205.383H325.741Z" fill="#9B4B38"/>
<path d="M321.983 205.314L325.741 205.383C325.234 187.01 323.782 153.977 323.295 125.316C323.275 124.151 323.255 122.986 323.235 121.841C322.758 122.837 322.281 123.882 321.813 124.988C321.813 125.107 321.813 125.227 321.813 125.346C322.311 153.987 322.867 186.442 321.983 205.324V205.314Z" fill="#6B382A"/>
<path d="M310.231 83.331C310.141 83.331 301.164 83.0621 297.067 74.4878L297.952 74.0596C301.79 82.0663 310.171 82.3352 310.251 82.3352L310.231 83.3211V83.331Z" fill="#9B4B38"/>
<path d="M319.437 22.4244L317.975 22.2451C317.329 27.4136 317.707 34.0361 318.433 41.3058C318.93 41.3258 319.427 41.3357 319.924 41.3556C319.208 34.0958 318.811 27.5132 319.447 22.4343L319.437 22.4244Z" fill="#6B382A"/>
<path d="M351.322 23.2409L350.347 23.1214C349.502 30.0028 344.114 33.5779 337.87 37.7207C337.174 38.1887 336.458 38.6568 335.742 39.1448C334.977 36.3663 332.819 27.8218 332.68 19.2375L331.696 19.2575C331.835 28.2999 334.201 37.3124 334.887 39.7323C334.231 40.1904 333.565 40.6585 332.919 41.1365L332.67 41.1863C332.67 41.1863 332.67 41.2361 332.68 41.256C333.316 41.2261 333.953 41.1962 334.579 41.1564C335.862 40.2502 337.154 39.3838 338.417 38.5472C344.591 34.4443 350.417 30.5804 351.322 23.2509V23.2409Z" fill="#6B382A"/>
<path d="M311.125 35.6792C306.343 31.875 300.915 27.5629 298.469 20.572L297.544 20.9007C300.08 28.1605 305.627 32.5622 310.519 36.446C312.577 38.0792 314.486 39.6029 315.987 41.1863C316.444 41.2062 316.902 41.2361 317.369 41.256C315.739 39.3539 313.541 37.5912 311.135 35.6792H311.125Z" fill="#6B382A"/>
<path d="M321.704 57.5683C323.593 51.0753 327.44 46.7433 331.706 43.2976C331.119 43.3474 330.542 43.3972 329.976 43.447C326.486 46.4445 323.364 50.1292 321.445 55.218C321.286 53.8338 321.127 52.4495 320.978 51.0653C320.739 48.9939 320.501 46.9425 320.282 44.9209C319.785 45.0304 319.308 45.1399 318.831 45.2594C319.049 47.2213 319.268 49.213 319.507 51.2246C319.775 53.5948 320.053 55.9948 320.312 58.3749C320.809 58.4844 321.316 58.584 321.823 58.6836C321.783 58.3052 321.744 57.9268 321.704 57.5483V57.5683Z" fill="#6B382A"/>
<path d="M345.177 52.0014C346.957 49.9499 348.14 47.52 348.259 44.4329L347.275 44.393C347.026 50.6669 342.125 54.023 336.508 57.2495C336.259 54.0429 335.643 51.0454 334.877 47.3607C334.609 46.076 334.32 44.6619 334.022 43.1482C333.694 43.1681 333.356 43.188 333.028 43.2079C333.336 44.7814 333.634 46.2354 333.903 47.5598C334.698 51.3939 335.325 54.4711 335.543 57.7973C335.245 57.9666 334.947 58.1359 334.639 58.3052C333.634 58.8728 332.63 59.4404 331.646 60.028C332.223 60.0778 332.799 60.1176 333.386 60.1575C333.963 59.8288 334.549 59.5002 335.126 59.1716C338.427 57.3093 341.787 55.4072 344.282 52.9474C345.088 53.0072 345.863 53.047 346.589 53.047C356.591 53.047 359.216 47.6096 359.335 47.3607L358.44 46.9524C358.41 47.0121 355.736 52.5491 345.157 52.0213L345.177 52.0014Z" fill="#6B382A"/>
<path d="M344.78 89.9139C346.808 87.3645 348.309 84.4267 348.846 80.8117L347.872 80.6624C347.325 84.357 345.744 87.2848 343.577 89.8442C343.974 89.874 344.372 89.894 344.77 89.9139H344.78Z" fill="#6B382A"/>
<path d="M340.286 89.4956C340.465 86.3686 340.455 82.3254 339.66 78.9893L338.705 79.2183C339.461 82.3752 339.471 86.2889 339.302 89.3462C339.63 89.396 339.958 89.4557 340.286 89.4956Z" fill="#6B382A"/>
<path d="M307.019 74.7866L306.095 75.1152C307.059 77.814 308.143 80.1742 309.266 82.2456C306.93 81.907 301.004 80.4431 297.952 74.0696L297.067 74.4978C299.801 80.214 304.713 82.2356 307.696 82.9526C308.65 82.7634 309.565 82.5443 310.43 82.2954C309.207 80.1543 308.044 77.6646 307.019 74.7966V74.7866Z" fill="#6B382A"/>
<path d="M315.758 74.7168L314.784 74.8363C315.033 76.8479 315.142 78.7301 315.172 80.433C315.51 80.2538 315.838 80.0645 316.146 79.8753C316.106 78.2919 315.987 76.5591 315.758 74.7168Z" fill="#6B382A"/>
<path d="M327.798 82.3851C346.042 83.6 358.122 80.7917 359.056 78.9494C359.991 77.107 359.961 75.3344 355.557 75.424C355.557 75.424 353.419 70.7534 348.12 71.5003C342.811 72.2572 338.953 77.1468 338.953 77.1468C338.953 77.1468 335.225 76.878 331.994 77.4556C328.763 78.0332 327.808 82.3851 327.808 82.3851H327.798Z" fill="#80C739"/>
<path d="M291.41 73.7908C306.741 77.6547 325.482 74.4282 327.62 73.3228C329.747 72.2174 330.344 70.5144 326.616 69.668C322.887 68.8314 318.95 70.853 318.95 70.853C318.95 70.853 321.734 65.6845 315.56 66.302C309.386 66.9194 307.696 70.5244 307.696 70.5244C307.696 70.5244 308.441 68.4729 305.608 68.7717C302.774 69.0704 301.979 70.1161 301.979 70.1161C301.979 70.1161 300.706 68.7617 295.546 68.7319C292.355 68.7119 286.32 72.5062 291.41 73.7908Z" fill="#80C739"/>
<path d="M302.446 50.0593C321.048 48.3763 342.493 45.7971 352.375 47.5398C357.903 48.5158 368.849 47.6095 374.328 47.2012C377.638 46.9523 376.823 40.2999 369.138 40.8277C369.138 40.8277 370.142 37.8103 360.926 39.6526C360.926 39.6526 362.099 37.4717 360.09 37.3024C358.082 37.1331 356.571 38.4775 356.571 38.4775C356.571 38.4775 361.433 33.7771 356.571 32.7712C351.709 31.7654 344.004 35.4601 344.004 35.4601C344.004 35.4601 347.017 33.6177 344.342 32.9405C341.668 32.2633 337.134 34.9522 337.134 34.9522C337.134 34.9522 338.307 30.421 329.598 31.9347C320.889 33.4484 317.538 38.4775 317.538 38.4775C317.538 38.4775 315.192 35.6293 312.01 37.4717C308.829 39.314 311.503 42.1721 311.503 42.1721C311.503 42.1721 305.558 39.0352 298.936 43.0087C293.906 46.0261 296.689 50.5772 302.456 50.0593H302.446Z" fill="#80C739"/>
<path d="M266.177 26.9854C293.15 26.9854 331.02 24.4659 345.764 26.3182C360.508 28.1605 404.741 26.6568 404.741 26.6568C404.741 26.6568 413.281 21.9563 408.598 19.7754C403.916 17.5945 388.992 20.114 388.992 20.114C388.992 20.114 394.182 17.0965 390.832 15.9214C387.481 14.7463 382.788 16.0907 382.788 16.0907C382.788 16.0907 387.978 8.71141 380.104 6.36118C372.23 4.01095 353.797 14.2484 353.797 14.2484C353.797 14.2484 354.463 12.2367 352.793 11.8982C351.123 11.5596 348.935 12.7347 348.935 12.7347C348.935 12.7347 353.797 6.85911 346.758 3.16447C339.719 -0.530161 332.521 6.01263 332.521 6.01263C332.521 6.01263 330.841 0.644952 321.793 0.137064C312.746 -0.370824 303.53 10.5438 303.53 10.5438C303.53 10.5438 295.656 7.01845 290.963 8.36285C286.27 9.70726 288.617 13.5612 288.617 13.5612C288.617 13.5612 286.608 10.8724 284.6 11.7189C282.592 12.5654 282.423 14.7363 282.423 14.7363C282.423 14.7363 272.262 5.11636 263.493 13.8998C257.965 19.4368 261.315 26.9854 266.177 26.9854Z" fill="#80C739"/>
<path d="M355.547 75.424C355.547 75.424 353.409 70.7534 348.11 71.5003C342.801 72.2572 338.943 77.1469 338.943 77.1469C338.943 77.1469 335.215 76.878 331.984 77.4556C330.831 77.6647 329.966 78.3518 329.339 79.1485C329.976 79.9253 330.98 80.5427 332.402 80.9012C338.436 82.4149 340.315 76.619 345.098 76.619C345.098 76.619 343.467 76.9975 343.467 79.0091C343.467 80.7519 346.857 82.4847 359.534 77.5651C359.693 76.3103 358.838 75.3543 355.567 75.424H355.547Z" fill="#97DF5F"/>
<path d="M319.049 67.0487C318.502 66.4711 317.449 66.1126 315.56 66.3018C309.385 66.9193 307.695 70.5243 307.695 70.5243C307.695 70.5243 308.441 68.4728 305.607 68.7716C302.774 69.0703 301.979 70.116 301.979 70.116C301.979 70.116 300.706 68.7616 295.546 68.7317C294.452 68.7317 293.021 69.1699 291.828 69.7973C301.064 76.2505 313.551 75.7725 319.049 67.0487Z" fill="#97DF5F"/>
<path d="M326.615 69.6679C325.263 69.3592 323.891 69.4388 322.678 69.6579C319.666 71.3011 317.349 72.9542 319.079 73.4721C321.107 74.0795 325.591 72.765 329.31 71.4206C329.28 70.7434 328.504 70.0961 326.615 69.6679Z" fill="#97DF5F"/>
<path d="M369.138 40.8277C369.138 40.8277 370.142 37.8102 360.926 39.6526C360.926 39.6526 362.099 37.4716 360.09 37.3023C358.082 37.133 356.571 38.4774 356.571 38.4774C356.571 38.4774 361.433 33.777 356.571 32.7712C353.797 32.1936 350.109 33.1496 347.444 34.0757C332.929 41.9331 353.23 45.7173 376.038 45.9165C376.734 43.9447 374.795 40.4393 369.138 40.8277Z" fill="#97DF5F"/>
<path d="M308.402 47.6692C316.236 48.0078 317.051 42.5007 316.156 37.392C315.162 36.8443 313.701 36.4857 312.001 37.4716C308.819 39.314 311.494 42.1721 311.494 42.1721C311.494 42.1721 305.548 39.0351 298.927 43.0086C297.386 43.9348 296.58 45.0103 296.372 46.0261C299.046 46.8825 302.953 47.4203 308.392 47.6593L308.402 47.6692Z" fill="#97DF5F"/>
<path d="M337.135 34.9622C337.135 34.9622 338.308 30.431 329.598 31.9447C322.162 33.2294 318.632 37.0834 317.757 38.1888C318.105 40.4294 320.462 42.3514 325.741 42.7697C333.317 43.3772 340.714 37.0634 344.621 33.0302C344.531 33.0003 344.442 32.9705 344.343 32.9505C341.658 32.2833 337.135 34.9622 337.135 34.9622Z" fill="#97DF5F"/>
<path d="M286.787 23.46C294.045 23.5695 290.148 16.728 286.37 11.7487C285.823 11.5296 285.216 11.4599 284.61 11.7188C282.602 12.5553 282.433 14.7363 282.433 14.7363C282.433 14.7363 272.272 5.11629 263.503 13.8998C260.103 17.3056 260.063 21.4683 261.664 24.1671C269.657 25.1928 279.947 23.3604 286.797 23.46H286.787Z" fill="#97DF5F"/>
<path d="M353.927 13.2524C353.897 12.6848 353.668 12.0574 352.793 11.8781C351.113 11.5395 348.936 12.7146 348.936 12.7146C348.936 12.7146 353.798 6.83908 346.759 3.14445C343.338 1.3519 339.879 1.97929 337.224 3.09465C331.806 10.1354 328.475 18.6798 336.369 21.6077C342.354 23.8284 348.697 19.1579 353.927 13.2425V13.2524Z" fill="#97DF5F"/>
<path d="M408.261 24.177C409.901 22.7031 411.014 20.9006 408.589 19.7753C403.896 17.5944 388.983 20.1139 388.983 20.1139C388.983 20.1139 394.173 17.0964 390.822 15.9213C387.472 14.7462 382.779 16.0906 382.779 16.0906C382.779 16.0906 387.969 8.70135 380.094 6.36108C374.457 4.67808 363.402 9.4582 357.576 12.2964C348.26 23.6591 374.05 27.1247 408.241 24.187L408.261 24.177Z" fill="#97DF5F"/>
<path d="M321.804 0.137064C312.756 -0.370824 303.54 10.5438 303.54 10.5438C303.54 10.5438 295.666 7.01845 290.973 8.36285C289.75 8.71141 289.005 9.23921 288.577 9.81681C291.242 13.9895 296.302 18.7696 305.886 21.6177C317.568 25.0833 326.844 14.8559 332.482 5.89313C332.183 5.12632 330.086 0.595159 321.804 0.127105V0.137064Z" fill="#97DF5F"/>
<path d="M354.771 10.6632C358.917 10.5337 359.673 7.64575 359.673 7.64575C359.673 7.64575 358.042 7.64575 356.531 8.27314C355.02 8.90053 354.771 10.6632 354.771 10.6632Z" fill="#97DF5F"/>
<path d="M351.749 9.65758C353.887 8.65176 354.016 4.12061 354.016 4.12061C354.016 4.12061 352.634 4.748 352.127 6.51067C351.62 8.27334 351.749 9.65758 351.749 9.65758Z" fill="#97DF5F"/>
<path d="M307.029 85.9005C304.415 85.6117 301.74 85.3528 301.74 85.3528C301.74 85.3528 303.52 87.2648 306.075 87.9022C308.62 88.5395 309.137 87.7727 309.137 87.7727C309.137 87.7727 308.282 86.03 307.039 85.8905L307.029 85.9005Z" fill="#80C739"/>
<path d="M295.039 34.4843C291.221 34.1059 286.628 32.8212 286.628 32.8212C286.628 32.8212 289.044 31.417 292.365 31.9249C295.675 32.4328 295.039 34.4743 295.039 34.4743V34.4843Z" fill="#80C739"/>
<path d="M359.514 52.5092C360.777 49.442 363.59 50.5574 363.59 50.5574C363.59 50.5574 362.954 51.6827 361.831 52.5491C360.707 53.4254 359.514 52.5092 359.514 52.5092Z" fill="#80C739"/>
<path d="M351.978 89.2366C354.275 84.6457 359.365 84.2573 359.365 84.2573C359.365 84.2573 358.222 86.0399 356.184 87.8325C354.145 89.615 351.978 89.2366 351.978 89.2366Z" fill="#80C739"/>
<path d="M356.164 54.8396C359.514 54.1126 362.566 56.8512 362.566 56.8512C362.566 56.8512 361.125 56.9906 359.166 56.6122C357.217 56.2437 356.164 54.8296 356.164 54.8296V54.8396Z" fill="#15B427"/>
<path d="M356.164 54.8396C359.514 54.1126 362.566 56.8512 362.566 56.8512C362.566 56.8512 361.125 56.9906 359.166 56.6122C357.217 56.2437 356.164 54.8296 356.164 54.8296V54.8396Z" fill="#80C739"/>
<path d="M51.3078 201.42C51.1984 201.42 51.099 201.34 51.0692 201.221C51.0692 201.181 50.3434 197.646 47.2017 193.493C47.1222 193.383 47.142 193.234 47.2514 193.154C47.3608 193.075 47.5099 193.095 47.5894 193.204C50.8008 197.457 51.5166 200.992 51.5464 201.131C51.5762 201.261 51.4868 201.39 51.3575 201.41C51.3376 201.41 51.3277 201.41 51.3078 201.41V201.42Z" fill="#5B3B28"/>
<path d="M55.7917 203.262C55.7917 203.262 55.7023 203.252 55.6625 203.222C53.3758 201.749 50.2341 201.061 47.4602 200.454C44.3881 199.777 41.7336 199.199 41.0873 197.705C41.0376 197.586 41.0873 197.436 41.2166 197.387C41.3359 197.337 41.4751 197.387 41.5347 197.516C42.0815 198.781 44.6267 199.339 47.5696 199.986C50.3832 200.603 53.5746 201.31 55.9309 202.824C56.0403 202.894 56.0701 203.043 56.0005 203.153C55.9508 203.222 55.8812 203.262 55.8017 203.262H55.7917Z" fill="#5B3B28"/>
<path d="M56.3681 201.649C56.2488 201.649 56.1394 201.56 56.1295 201.44C56.1096 201.311 56.209 201.191 56.3383 201.171C61.3193 200.604 67.8115 195.047 69.0145 191.322C69.0543 191.193 69.1935 191.123 69.3128 191.163C69.442 191.203 69.5116 191.342 69.4718 191.462C68.1993 195.405 61.6275 201.052 56.3979 201.649C56.3979 201.649 56.378 201.649 56.3681 201.649Z" fill="#5B3B28"/>
<path d="M57.0942 207.136C56.8456 207.136 55.8216 207.256 55.7918 207.136C52.5307 192.427 63.5765 188.235 63.7554 188.095C63.8946 187.976 67.772 188.354 68.0305 188.414C68.289 188.474 68.3885 188.623 68.2493 188.743C68.0802 188.892 51.8746 192.597 57.6112 206.857C57.6609 206.987 57.472 207.116 57.1837 207.136C57.1538 207.136 57.124 207.136 57.0842 207.136H57.0942Z" fill="#5B3B28"/>
<path d="M16.3613 192.308C31.195 197.606 38.0948 198.413 38.0948 198.413L36.6035 199.568C36.6035 199.568 45.114 200.952 54.4198 194.499C54.4198 194.499 66.1515 194.379 73.2801 191.501C80.4086 188.623 84.6638 184.132 84.6638 184.132L82.9438 182.867L84.6638 180.905C84.6638 180.905 66.1515 163.398 52.9285 159.255C52.9285 159.255 54.8871 158.1 53.0478 157.642C51.2085 157.184 27.0591 167.661 28.6697 178.137L30.0517 178.486C23.9571 181.134 18.5585 188.235 16.3713 192.308H16.3613Z" fill="#6AAC16"/>
<path d="M82.1982 178.675C77.5154 174.512 66.9171 165.599 57.5019 161.098C51.5963 161.725 46.5655 163.488 43.5531 165.709C43.5531 165.709 48.2656 160.988 53.7835 158.08C53.704 157.911 53.4753 157.762 53.0379 157.652C51.3278 157.224 30.2505 166.286 28.6796 176.006C30.3201 177.29 33.3922 178.077 39.0692 177.111C39.0692 177.111 33.432 179.82 25.8561 181.035C21.571 184.341 18.0316 189.211 16.3613 192.308C42.9168 194.877 52.3419 191.103 52.3419 191.103L48.027 195.246C48.027 195.246 53.3759 194.21 55.9609 191.621C55.9609 191.621 71.0729 192.806 81.5718 186.781C83.5602 185.277 84.6439 184.132 84.6439 184.132L82.9239 182.867L84.6439 180.905C84.6439 180.905 84.6439 180.905 84.624 180.885C82.1385 181.672 79.136 182.389 75.6165 182.807C75.6165 182.807 79.4939 180.955 82.1882 178.675H82.1982Z" fill="#80C739"/>
<path d="M31.9899 175.667C40.3811 174.283 45.0937 174.512 45.0937 174.512C45.0937 174.512 39.6851 176.583 37.6172 176.474C35.5492 176.354 31.98 175.667 31.98 175.667H31.9899Z" fill="#6AAC16"/>
<path d="M59.3707 162.034C47.2513 162.86 38.3729 172.61 38.3729 172.61L49.4087 173.476C43.3738 182.11 29.2262 183.325 29.2262 183.325L31.6421 184.879L21.9883 188.683C21.9883 188.683 57.5215 188.534 76.9086 174.173C72.0569 170.19 65.5647 165.31 59.3608 162.044L59.3707 162.034Z" fill="#97DF5F"/>
<path d="M30.648 198.871C28.2022 198.602 25.6968 198.353 25.6968 198.353C25.6968 198.353 27.3671 200.165 29.7532 200.763C32.1393 201.37 32.6165 200.643 32.6165 200.643C32.6165 200.643 31.8211 198.99 30.648 198.861V198.871Z" fill="#6AAC16"/>
<path d="M64.3517 160.948C60.7725 160.59 56.4775 159.385 56.4775 159.385C56.4775 159.385 58.7443 158.06 61.8463 158.538C64.9482 159.016 64.3517 160.948 64.3517 160.948Z" fill="#6AAC16"/>
<path d="M68.9053 197.576C71.0528 193.234 75.825 192.875 75.825 192.875C75.825 192.875 74.7513 194.568 72.8424 196.251C70.9335 197.944 68.9053 197.576 68.9053 197.576Z" fill="#6AAC16"/>
<path d="M115.236 180.587C115.593 179.252 116.091 177.948 116.657 176.683C117.224 175.408 117.86 174.163 118.556 172.958C118.606 172.859 118.576 172.739 118.487 172.689C118.397 172.64 118.288 172.669 118.228 172.749C117.482 173.954 116.806 175.189 116.18 176.454C115.564 177.728 115.007 179.033 114.579 180.397C114.52 180.577 114.619 180.766 114.798 180.826C114.977 180.885 115.166 180.786 115.216 180.596C115.216 180.596 115.216 180.597 115.216 180.587H115.236Z" fill="#683E2A"/>
<path d="M143.432 166.435C142.547 167.879 141.483 169.204 140.24 170.349C139.624 170.927 138.968 171.455 138.282 171.943C137.606 172.441 136.89 172.889 136.154 173.297C134.692 174.124 133.141 174.791 131.551 175.319C129.97 175.846 128.807 175.956 127.176 176.175L126.669 176.484C126.46 176.514 125.655 177.46 125.864 177.43L126.779 177.231C128.499 176.952 130.139 176.484 131.75 175.906C133.36 175.319 134.921 174.602 136.393 173.725C137.128 173.287 137.844 172.809 138.53 172.291C139.216 171.773 139.872 171.216 140.489 170.618C141.731 169.423 142.785 168.049 143.64 166.555C143.67 166.495 143.65 166.416 143.591 166.386C143.531 166.356 143.461 166.366 143.422 166.426L143.432 166.435Z" fill="#683E2A"/>
<path d="M133.658 168.278L132.217 170.11C131.719 170.708 131.242 171.315 130.725 171.893C129.721 173.078 128.667 174.213 127.593 175.329C126.51 176.434 125.396 177.51 124.243 178.535C123.09 179.551 123.537 179.242 122.304 180.099V181.593C123.587 180.646 123.517 180.069 124.66 179.003C125.794 177.928 126.888 176.812 127.941 175.667C128.985 174.512 130.009 173.337 130.984 172.122C131.481 171.524 131.948 170.897 132.425 170.29L133.817 168.417C133.817 168.417 133.847 168.308 133.797 168.268C133.748 168.238 133.688 168.238 133.648 168.288L133.658 168.278Z" fill="#683E2A"/>
<path d="M110.215 169.204C110.155 170.04 110.255 170.857 110.414 171.654C110.573 172.45 110.791 173.237 111.05 174.004C111.567 175.538 112.203 177.031 112.919 178.475C113.625 179.929 114.41 181.343 115.255 182.718C115.683 183.405 116.12 184.082 116.598 184.739C116.836 185.068 117.075 185.397 117.343 185.715C117.482 185.875 117.612 186.034 117.761 186.183C117.91 186.333 121.062 190.077 121.3 190.226C121.479 190.336 121.917 191.949 121.847 190.724C121.837 190.515 121.976 189.918 121.847 189.4L122.314 188.055C121.956 188.942 118.407 185.785 118.278 185.655C118.149 185.526 118.019 185.387 117.89 185.237C117.632 184.948 117.393 184.63 117.154 184.321C116.677 183.694 116.24 183.026 115.802 182.359C114.947 181.015 114.142 179.64 113.416 178.216C112.69 176.802 112.034 175.338 111.497 173.845C111.229 173.098 111 172.331 110.831 171.564C110.662 170.797 110.553 170.001 110.603 169.224C110.603 169.114 110.523 169.025 110.424 169.015C110.324 169.015 110.235 169.084 110.225 169.194L110.215 169.204Z" fill="#683E2A"/>
<path d="M121.837 206.409C122.752 206.847 123.885 206.529 123.865 206.32V206.31" fill="#683E2A"/>
<path d="M123.865 206.31C120.823 179.641 126.291 170.997 126.778 167.69C126.798 167.581 126.679 167.471 126.53 167.461C126.381 167.451 126.241 167.531 126.222 167.641C125.088 166.665 119.799 179.262 121.837 206.409" fill="#683E2A"/>
<path d="M154.994 161.675C145.012 169.124 129.065 172.66 129.065 172.66C129.065 172.66 123.11 172.46 120.425 177.559C117.741 182.658 92.1897 159.514 91.623 151.677C91.0463 143.829 106.218 135.793 106.218 135.793C106.218 135.793 106.984 129.877 116.309 128.224C125.605 126.581 136.174 133.831 136.174 133.831C136.174 133.831 138.48 132.855 142.706 136.38C146.931 139.906 154.994 161.675 154.994 161.675Z" fill="#6AAC16"/>
<path d="M91.6129 151.438C91.4339 146.18 98.1846 140.882 102.569 137.994C108.365 140.165 117.363 141.21 117.363 141.21C117.363 141.21 110.513 136.839 108.097 132.238C109.519 130.654 112.004 128.981 116.319 128.215C125.615 126.571 136.183 133.821 136.183 133.821C136.183 133.821 138.49 132.845 142.715 136.371C146.086 139.189 151.902 153.599 154.109 159.325C151.345 158.519 147.577 157.811 147.577 157.811L151.932 161.476C134.394 167.362 115.315 162.133 115.315 162.133L122.612 167.89C122.612 167.89 103.036 163.687 91.6228 151.438H91.6129Z" fill="#80C739"/>
<path d="M131.829 131.371C134.463 132.666 136.174 133.831 136.174 133.831C136.174 133.831 136.551 133.672 137.277 133.712C139.574 138.701 140.647 142.356 140.647 142.356C140.647 142.356 139.166 138.561 131.819 131.361L131.829 131.371Z" fill="#5A8D4E"/>
<path d="M113.516 136.799C111.458 135.036 110.255 132.935 109.062 131.312C110.563 130.047 112.84 128.842 116.309 128.225C125.605 126.581 136.174 133.831 136.174 133.831C136.174 133.831 138.48 132.855 142.706 136.381C144.306 137.715 146.444 141.649 148.502 146.031C142.974 154.167 127.862 149.088 113.516 136.789V136.799Z" fill="#97DF5F"/>
<path d="M101.357 138.811C113.446 141.569 132.625 154.515 132.843 156.855C133.092 159.495 109.658 161.765 91.8916 149.317C93.0747 145.254 97.6779 141.36 101.357 138.811Z" fill="#97DF5F"/>
<path d="M144.008 156.308C137.993 153.659 134.98 151.518 134.98 151.518C134.98 151.518 137.605 154.296 139.335 155.401C141.065 156.507 144.008 156.308 144.008 156.308Z" fill="#6AAC16"/>
<path d="M123.308 146.05C118.576 145.791 114.927 143.461 114.927 143.461L119.212 144.039L123.308 146.04V146.05Z" fill="#6AAC16"/>
<path d="M107.471 169.503C103.892 169.144 99.5967 167.939 99.5967 167.939C99.5967 167.939 101.863 166.615 104.965 167.093C108.067 167.571 107.471 169.503 107.471 169.503Z" fill="#6AAC16"/>
<path d="M141.572 172.62C143.72 168.278 148.492 167.919 148.492 167.919C148.492 167.919 147.418 169.612 145.509 171.295C143.6 172.988 141.572 172.62 141.572 172.62Z" fill="#6AAC16"/>
<path d="M145.798 137.824C157.828 148.4 155.889 162.163 155.889 162.163C153.702 153.191 150.5 144.955 145.798 137.824Z" fill="#6AAC16"/>
<path d="M111.281 98.53H110.562L111.625 93.5261H109.816L109.949 92.8933H114.285L114.152 93.5261H112.343L111.281 98.53ZM113.121 98.53L113.984 94.4675H114.628L114.515 95.0066H114.531C114.785 94.6394 115.16 94.4089 115.671 94.4089C115.871 94.4089 116.05 94.4558 116.14 94.4988L115.996 95.1433C115.906 95.1082 115.675 95.0613 115.488 95.0613C114.8 95.0613 114.453 95.4519 114.296 96.1746L113.8 98.53H113.121ZM117.507 98.6082C116.402 98.6082 115.835 97.8503 115.835 96.8191C115.835 95.4832 116.667 94.3972 117.847 94.3972C118.859 94.3972 119.488 95.0535 119.488 96.1121C119.488 96.28 119.48 96.4832 119.452 96.6589H116.531C116.527 96.7058 116.527 96.7527 116.527 96.7996C116.527 97.5496 116.913 98.0105 117.515 98.0105C118.062 98.0105 118.449 97.7214 118.632 97.28H119.3C119.089 98.03 118.378 98.6082 117.507 98.6082ZM116.616 96.116H118.792C118.796 96.0808 118.796 96.0417 118.796 96.0066C118.796 95.491 118.523 94.991 117.839 94.991C117.206 94.991 116.781 95.4832 116.616 96.116ZM121.48 98.6082C120.374 98.6082 119.808 97.8503 119.808 96.8191C119.808 95.4832 120.64 94.3972 121.819 94.3972C122.831 94.3972 123.46 95.0535 123.46 96.1121C123.46 96.28 123.452 96.4832 123.425 96.6589H120.503C120.499 96.7058 120.499 96.7527 120.499 96.7996C120.499 97.5496 120.886 98.0105 121.487 98.0105C122.034 98.0105 122.421 97.7214 122.605 97.28H123.273C123.062 98.03 122.351 98.6082 121.48 98.6082ZM120.589 96.116H122.765C122.769 96.0808 122.769 96.0417 122.769 96.0066C122.769 95.491 122.495 94.991 121.812 94.991C121.179 94.991 120.753 95.4832 120.589 96.116ZM124.061 95.6082C124.061 94.9089 124.671 94.4011 125.569 94.4011C126.448 94.4011 127.057 94.9128 127.065 95.6394H126.417C126.382 95.241 126.03 94.9558 125.561 94.9558C125.046 94.9558 124.729 95.2058 124.729 95.5457C124.729 95.8347 124.905 95.9871 125.413 96.1433L125.764 96.2527C126.491 96.4792 126.792 96.7957 126.792 97.3308C126.792 98.0613 126.124 98.6003 125.218 98.6003C124.253 98.6003 123.616 98.0574 123.593 97.3425H124.272C124.335 97.7527 124.682 98.0417 125.249 98.0417C125.741 98.0417 126.108 97.7449 126.108 97.3699C126.108 97.1082 125.972 96.9949 125.456 96.8347L125.104 96.7253C124.366 96.4949 124.061 96.1667 124.061 95.6082ZM110.347 106.62C109.07 106.62 108.39 105.846 108.383 104.87C108.379 104.706 108.398 104.534 108.433 104.362L109.16 100.893H109.879L109.16 104.315C109.121 104.499 109.105 104.675 109.109 104.835C109.136 105.526 109.574 105.971 110.472 105.971C111.308 105.971 111.961 105.448 112.148 104.569L112.933 100.893H113.652L112.84 104.706C112.582 105.909 111.758 106.62 110.347 106.62ZM113.261 106.53L114.125 102.468H114.773L114.64 103.1H114.656C114.925 102.671 115.378 102.397 115.968 102.397C116.695 102.397 117.257 102.901 117.257 103.593C117.257 103.733 117.238 103.917 117.203 104.089L116.683 106.53H116L116.496 104.206C116.531 104.042 116.546 103.889 116.546 103.784C116.546 103.296 116.203 102.999 115.683 102.999C115.093 102.999 114.609 103.421 114.464 104.093L113.945 106.53H113.261ZM119.116 106.6C118.187 106.6 117.605 105.905 117.605 104.85C117.605 103.444 118.491 102.397 119.64 102.397C120.288 102.397 120.82 102.803 120.945 103.303H120.964L121.484 100.893H122.163L120.964 106.53H120.281L120.417 105.882H120.402C120.156 106.288 119.648 106.6 119.116 106.6ZM119.273 106.003C120.093 106.003 120.695 105.206 120.695 104.139C120.695 103.471 120.288 102.999 119.648 102.999C118.874 102.999 118.284 103.749 118.284 104.819C118.284 105.553 118.652 106.003 119.273 106.003ZM123.597 106.608C122.491 106.608 121.925 105.85 121.925 104.819C121.925 103.483 122.757 102.397 123.937 102.397C124.948 102.397 125.577 103.053 125.577 104.112C125.577 104.28 125.569 104.483 125.542 104.659H122.62C122.616 104.706 122.616 104.753 122.616 104.8C122.616 105.55 123.003 106.01 123.605 106.01C124.151 106.01 124.538 105.721 124.722 105.28H125.39C125.179 106.03 124.468 106.608 123.597 106.608ZM122.706 104.116H124.882C124.886 104.081 124.886 104.042 124.886 104.007C124.886 103.491 124.612 102.991 123.929 102.991C123.296 102.991 122.87 103.483 122.706 104.116ZM125.655 106.53L126.518 102.468H127.163L127.05 103.007H127.065C127.319 102.639 127.694 102.409 128.206 102.409C128.405 102.409 128.585 102.456 128.675 102.499L128.53 103.143C128.44 103.108 128.21 103.061 128.022 103.061C127.335 103.061 126.987 103.452 126.831 104.175L126.335 106.53H125.655ZM114.074 111.917L114.199 111.331H114.914C115.683 111.331 116.238 110.952 116.238 110.354C116.238 109.792 115.82 109.417 115.136 109.417C114.539 109.417 114.054 109.764 113.949 110.288H113.269C113.445 109.374 114.195 108.803 115.214 108.803C116.269 108.803 116.949 109.479 116.949 110.28C116.949 110.987 116.394 111.518 115.667 111.62L115.664 111.635C116.281 111.784 116.632 112.257 116.632 112.87C116.632 113.925 115.73 114.62 114.582 114.62C113.316 114.62 112.582 113.858 112.621 112.928H113.3C113.328 113.612 113.812 114.007 114.621 114.007C115.367 114.007 115.91 113.581 115.91 112.874C115.91 112.284 115.5 111.917 114.773 111.917H114.074ZM119.281 114.624C118.148 114.624 117.429 113.835 117.429 112.593C117.429 110.374 118.472 108.8 119.941 108.8C121.07 108.8 121.788 109.596 121.788 110.846C121.788 113.077 120.761 114.624 119.281 114.624ZM118.156 112.581C118.156 113.456 118.605 114.007 119.312 114.007C120.3 114.007 121.058 112.639 121.058 110.85C121.058 109.979 120.613 109.421 119.917 109.421C118.929 109.421 118.156 110.807 118.156 112.581ZM123.19 110.882H122.624L123.425 108.893H124.148L123.19 110.882Z" fill="#9C9C9C"/>
<path d="M34.1932 133.077H34.9002C34.9784 133.733 35.5331 134.186 36.3885 134.186C37.1112 134.186 37.6698 133.846 37.6698 133.229C37.6698 132.721 37.369 132.464 36.6737 132.245L36.2987 132.128C35.3651 131.835 34.9081 131.385 34.9081 130.624C34.9081 129.659 35.7088 129.007 36.8573 129.007C38.0018 129.007 38.8377 129.628 38.8377 130.639H38.1346C38.1073 130.053 37.6346 129.643 36.8495 129.643C36.0409 129.643 35.6346 130.096 35.6346 130.569C35.6346 131.003 35.9354 131.272 36.619 131.487L36.994 131.604C37.9315 131.897 38.4081 132.366 38.4081 133.081C38.4081 133.964 37.7166 134.823 36.3807 134.823C35.2088 134.823 34.2323 134.171 34.1932 133.077ZM38.6422 134.733L39.8414 129.096H40.525L40.0563 131.303H40.0719C40.2985 130.928 40.7555 130.6 41.3844 130.6C42.1774 130.6 42.6852 131.178 42.6852 131.819C42.6852 131.964 42.6656 132.124 42.6305 132.292L42.0953 134.733H41.4117L41.9235 132.409C41.9547 132.26 41.9742 132.128 41.9742 132.01C41.9742 131.53 41.6461 131.202 41.0953 131.202C40.4664 131.202 39.9821 131.651 39.8453 132.296L39.3258 134.733H38.6422ZM42.7865 134.733L43.6498 130.671H44.2943L44.1811 131.21H44.1967C44.4506 130.843 44.8256 130.612 45.3373 130.612C45.5365 130.612 45.7162 130.659 45.8061 130.702L45.6615 131.346C45.5717 131.311 45.3412 131.264 45.1537 131.264C44.4662 131.264 44.1186 131.655 43.9623 132.378L43.4662 134.733H42.7865ZM49.5949 130.671L48.7316 134.733H48.0832L48.2121 134.163H48.1965C48.0011 134.464 47.4816 134.803 46.8605 134.803C46.0832 134.803 45.6105 134.3 45.6105 133.671C45.6105 133.51 45.634 133.26 45.6691 133.093L46.1769 130.671H46.8644L46.3683 132.995C46.3371 133.143 46.3136 133.362 46.3136 133.456C46.3136 133.968 46.5793 134.202 47.1261 134.202C47.7707 134.202 48.259 133.745 48.3957 133.108L48.9152 130.671H49.5949ZM51.6181 134.803C50.9775 134.803 50.4228 134.413 50.29 133.893H50.2705L50.0947 134.733H49.4501L50.6494 129.096H51.3212L50.8564 131.307H50.8681C51.0908 130.897 51.5908 130.6 52.1064 130.6C53.0283 130.6 53.6298 131.257 53.6298 132.382C53.6298 133.6 52.8798 134.803 51.6181 134.803ZM51.6103 134.202C52.4267 134.202 52.9501 133.389 52.9501 132.397C52.9501 131.655 52.5908 131.198 51.9501 131.198C51.1064 131.198 50.54 132.046 50.54 133.061C50.54 133.729 50.9697 134.202 51.6103 134.202ZM54.2351 131.811C54.2351 131.112 54.8445 130.604 55.7429 130.604C56.6218 130.604 57.2312 131.116 57.239 131.843H56.5906C56.5554 131.444 56.2038 131.159 55.7351 131.159C55.2195 131.159 54.9031 131.409 54.9031 131.749C54.9031 132.038 55.0788 132.19 55.5866 132.346L55.9382 132.456C56.6648 132.682 56.9656 132.999 56.9656 133.534C56.9656 134.264 56.2976 134.803 55.3913 134.803C54.4265 134.803 53.7898 134.26 53.7663 133.546H54.446C54.5085 133.956 54.8562 134.245 55.4226 134.245C55.9148 134.245 56.282 133.948 56.282 133.573C56.282 133.311 56.1452 133.198 55.6296 133.038L55.2781 132.928C54.5398 132.698 54.2351 132.37 54.2351 131.811ZM38.0291 142.823C36.7518 142.823 36.0721 142.05 36.0643 141.073C36.0604 140.909 36.0799 140.737 36.1151 140.565L36.8416 137.096H37.5604L36.8416 140.518C36.8026 140.702 36.787 140.878 36.7909 141.038C36.8182 141.729 37.2557 142.175 38.1541 142.175C38.9901 142.175 39.6424 141.651 39.8299 140.772L40.6151 137.096H41.3338L40.5213 140.909C40.2635 142.112 39.4393 142.823 38.0291 142.823ZM40.943 142.733L41.8063 138.671H42.4547L42.3219 139.303H42.3375C42.6071 138.874 43.0602 138.6 43.65 138.6C44.3766 138.6 44.9391 139.104 44.9391 139.796C44.9391 139.936 44.9196 140.12 44.8844 140.292L44.3649 142.733H43.6813L44.1774 140.409C44.2125 140.245 44.2281 140.093 44.2281 139.987C44.2281 139.499 43.8844 139.202 43.3649 139.202C42.775 139.202 42.2906 139.624 42.1461 140.296L41.6266 142.733H40.943ZM46.7982 142.803C45.8686 142.803 45.2865 142.108 45.2865 141.053C45.2865 139.647 46.1732 138.6 47.3217 138.6C47.9701 138.6 48.5014 139.007 48.6264 139.507H48.6459L49.1654 137.096H49.8451L48.6459 142.733H47.9623L48.099 142.085H48.0834C47.8373 142.491 47.3295 142.803 46.7982 142.803ZM46.9545 142.206C47.7748 142.206 48.3764 141.409 48.3764 140.343C48.3764 139.675 47.9701 139.202 47.3295 139.202C46.5561 139.202 45.9662 139.952 45.9662 141.022C45.9662 141.757 46.3334 142.206 46.9545 142.206ZM51.2785 142.811C50.173 142.811 49.6066 142.053 49.6066 141.022C49.6066 139.686 50.4386 138.6 51.6183 138.6C52.6301 138.6 53.259 139.257 53.259 140.315C53.259 140.483 53.2511 140.686 53.2238 140.862H50.3019C50.298 140.909 50.298 140.956 50.298 141.003C50.298 141.753 50.6847 142.214 51.2863 142.214C51.8332 142.214 52.2199 141.925 52.4035 141.483H53.0715C52.8605 142.233 52.1496 142.811 51.2785 142.811ZM50.3879 140.319H52.5636C52.5676 140.284 52.5676 140.245 52.5676 140.21C52.5676 139.694 52.2941 139.194 51.6105 139.194C50.9777 139.194 50.5519 139.686 50.3879 140.319ZM53.3369 142.733L54.2001 138.671H54.8447L54.7314 139.21H54.747C55.0009 138.843 55.3759 138.612 55.8876 138.612C56.0869 138.612 56.2666 138.659 56.3564 138.702L56.2119 139.346C56.122 139.311 55.8916 139.264 55.7041 139.264C55.0166 139.264 54.6689 139.655 54.5126 140.378L54.0166 142.733H53.3369ZM42.1714 150.733L43.1948 145.921H43.1792L41.4722 146.991L41.6441 146.175L43.3745 145.096H44.0737L42.8745 150.733H42.1714ZM46.4446 150.827C45.3118 150.827 44.4993 150.128 44.4876 149.139H45.179C45.2337 149.764 45.7571 150.194 46.4681 150.194C47.2415 150.194 47.7845 149.632 47.7845 148.827C47.7845 148.116 47.3157 147.635 46.6321 147.635C46.2024 147.635 45.7298 147.792 45.4759 148.155H44.7415L45.6946 145.096H48.8587L48.722 145.725H46.1556L45.6087 147.483H45.6282C45.8782 147.206 46.3313 147.042 46.804 147.042C47.7688 147.042 48.4954 147.686 48.4954 148.811C48.4954 149.96 47.6399 150.827 46.4446 150.827ZM50.003 147.085H49.4366L50.2374 145.096H50.96L50.003 147.085Z" fill="#9C9C9C"/>
<path d="M181.849 68.7522C180.572 68.7522 179.892 67.9788 179.884 67.0022C179.88 66.8381 179.9 66.6663 179.935 66.4944L180.661 63.0256H181.38L180.661 66.4475C180.622 66.6311 180.607 66.8069 180.611 66.967C180.638 67.6584 181.075 68.1038 181.974 68.1038C182.81 68.1038 183.462 67.5803 183.65 66.7014L184.435 63.0256H185.154L184.341 66.8381C184.083 68.0413 183.259 68.7522 181.849 68.7522ZM184.763 68.6624L185.626 64.5999H186.274L186.142 65.2327H186.157C186.427 64.803 186.88 64.5295 187.47 64.5295C188.196 64.5295 188.759 65.0334 188.759 65.7249C188.759 65.8655 188.739 66.0491 188.704 66.2209L188.185 68.6624H187.501L187.997 66.3381C188.032 66.1741 188.048 66.0217 188.048 65.9163C188.048 65.428 187.704 65.1311 187.185 65.1311C186.595 65.1311 186.11 65.553 185.966 66.2249L185.446 68.6624H184.763ZM190.618 68.7327C189.688 68.7327 189.106 68.0374 189.106 66.9827C189.106 65.5764 189.993 64.5295 191.141 64.5295C191.79 64.5295 192.321 64.9358 192.446 65.4358H192.466L192.985 63.0256H193.665L192.466 68.6624H191.782L191.919 68.0139H191.903C191.657 68.4202 191.149 68.7327 190.618 68.7327ZM190.774 68.135C191.595 68.135 192.196 67.3381 192.196 66.2717C192.196 65.6038 191.79 65.1311 191.149 65.1311C190.376 65.1311 189.786 65.8811 189.786 66.9514C189.786 67.6858 190.153 68.135 190.774 68.135ZM195.098 68.7405C193.993 68.7405 193.426 67.9827 193.426 66.9514C193.426 65.6155 194.258 64.5295 195.438 64.5295C196.45 64.5295 197.079 65.1858 197.079 66.2444C197.079 66.4124 197.071 66.6155 197.044 66.7913H194.122C194.118 66.8381 194.118 66.885 194.118 66.9319C194.118 67.6819 194.504 68.1428 195.106 68.1428C195.653 68.1428 196.04 67.8538 196.223 67.4124H196.891C196.68 68.1624 195.969 68.7405 195.098 68.7405ZM194.208 66.2483H196.383C196.387 66.2131 196.387 66.1741 196.387 66.1389C196.387 65.6233 196.114 65.1233 195.43 65.1233C194.797 65.1233 194.372 65.6155 194.208 66.2483ZM197.157 68.6624L198.02 64.5999H198.664L198.551 65.1389H198.567C198.821 64.7717 199.196 64.5413 199.707 64.5413C199.907 64.5413 200.086 64.5881 200.176 64.6311L200.032 65.2756C199.942 65.2405 199.711 65.1936 199.524 65.1936C198.836 65.1936 198.489 65.5842 198.332 66.3069L197.836 68.6624H197.157ZM186.7 76.6624L186.95 75.4944H184.146L184.251 74.8264C184.938 73.928 186.157 72.5334 187.489 71.0256H188.587L187.771 74.8655H188.571L188.438 75.4944H187.638L187.388 76.6624H186.7ZM184.993 74.8538L184.989 74.8694H187.083L187.774 71.6311H187.759C187.005 72.4709 185.899 73.7092 184.993 74.8538ZM190.977 76.7561C189.845 76.7561 189.032 76.0569 189.02 75.0686H189.712C189.766 75.6936 190.29 76.1233 191.001 76.1233C191.774 76.1233 192.317 75.5608 192.317 74.7561C192.317 74.0452 191.848 73.5647 191.165 73.5647C190.735 73.5647 190.262 73.7209 190.009 74.0842H189.274L190.227 71.0256H193.391L193.255 71.6545H190.688L190.141 73.4124H190.161C190.411 73.135 190.864 72.9709 191.337 72.9709C192.302 72.9709 193.028 73.6155 193.028 74.7405C193.028 75.8889 192.173 76.7561 190.977 76.7561ZM194.536 73.0139H193.969L194.77 71.0256H195.493L194.536 73.0139Z" fill="#9C9C9C"/>
<path d="M234.343 30.739C233.066 30.739 232.386 29.9656 232.378 28.989C232.374 28.825 232.394 28.6531 232.429 28.4812L233.156 25.0125H233.874L233.156 28.4343C233.116 28.6179 233.101 28.7937 233.105 28.9539C233.132 29.6453 233.57 30.0906 234.468 30.0906C235.304 30.0906 235.956 29.5671 236.144 28.6882L236.929 25.0125H237.648L236.835 28.825C236.577 30.0281 235.753 30.739 234.343 30.739ZM237.257 30.6492L238.12 26.5867H238.769L238.636 27.2195H238.651C238.921 26.7898 239.374 26.5164 239.964 26.5164C240.69 26.5164 241.253 27.0203 241.253 27.7117C241.253 27.8523 241.233 28.0359 241.198 28.2078L240.679 30.6492H239.995L240.491 28.325C240.526 28.1609 240.542 28.0085 240.542 27.9031C240.542 27.4148 240.198 27.1179 239.679 27.1179C239.089 27.1179 238.605 27.5398 238.46 28.2117L237.94 30.6492H237.257ZM243.112 30.7195C242.182 30.7195 241.6 30.0242 241.6 28.9695C241.6 27.5632 242.487 26.5164 243.636 26.5164C244.284 26.5164 244.815 26.9226 244.94 27.4226H244.96L245.479 25.0125H246.159L244.96 30.6492H244.276L244.413 30.0007H244.397C244.151 30.407 243.643 30.7195 243.112 30.7195ZM243.268 30.1218C244.089 30.1218 244.69 29.325 244.69 28.2585C244.69 27.5906 244.284 27.1179 243.643 27.1179C242.87 27.1179 242.28 27.8679 242.28 28.9382C242.28 29.6726 242.647 30.1218 243.268 30.1218ZM247.592 30.7273C246.487 30.7273 245.92 29.9695 245.92 28.9382C245.92 27.6023 246.753 26.5164 247.932 26.5164C248.944 26.5164 249.573 27.1726 249.573 28.2312C249.573 28.3992 249.565 28.6023 249.538 28.7781H246.616C246.612 28.825 246.612 28.8718 246.612 28.9187C246.612 29.6687 246.999 30.1296 247.6 30.1296C248.147 30.1296 248.534 29.8406 248.717 29.3992H249.385C249.174 30.1492 248.463 30.7273 247.592 30.7273ZM246.702 28.2351H248.878C248.881 28.2 248.881 28.1609 248.881 28.1257C248.881 27.6101 248.608 27.1101 247.924 27.1101C247.292 27.1101 246.866 27.6023 246.702 28.2351ZM249.651 30.6492L250.514 26.5867H251.159L251.045 27.1257H251.061C251.315 26.7585 251.69 26.5281 252.202 26.5281C252.401 26.5281 252.58 26.575 252.67 26.6179L252.526 27.2625C252.436 27.2273 252.205 27.1804 252.018 27.1804C251.33 27.1804 250.983 27.571 250.827 28.2937L250.33 30.6492H249.651ZM240.87 36.6023C240.87 37.6804 240.124 38.7429 238.737 38.7429C237.679 38.7429 236.878 38.0085 236.878 36.489C236.878 34.532 237.96 32.9187 239.511 32.9187C240.483 32.9187 241.198 33.5554 241.272 34.4929H240.554C240.464 33.9109 240.038 33.5476 239.44 33.5476C238.601 33.5476 237.897 34.3875 237.644 35.6882L237.667 35.6921C237.98 35.2507 238.511 34.9382 239.163 34.9382C240.163 34.9382 240.87 35.6218 240.87 36.6023ZM238.991 35.5476C238.206 35.5476 237.593 36.0789 237.593 36.8914C237.593 37.6023 238.101 38.1179 238.8 38.1179C239.601 38.1179 240.144 37.532 240.144 36.7429C240.144 36.0398 239.667 35.5476 238.991 35.5476ZM243.3 38.7429C242.167 38.7429 241.448 37.9539 241.448 36.7117C241.448 34.4929 242.491 32.9187 243.96 32.9187C245.089 32.9187 245.807 33.7156 245.807 34.9656C245.807 37.196 244.78 38.7429 243.3 38.7429ZM242.175 36.7C242.175 37.575 242.624 38.1257 243.331 38.1257C244.319 38.1257 245.077 36.7585 245.077 34.9695C245.077 34.0984 244.632 33.5398 243.936 33.5398C242.948 33.5398 242.175 34.9265 242.175 36.7ZM247.21 35.0007H246.643L247.444 33.0125H248.167L247.21 35.0007Z" fill="#9C9C9C"/>
<path d="M337.828 115.727L337.597 114.113H335.336L334.422 115.727H333.648L336.914 110.09H337.621L338.496 115.727H337.828ZM337.105 110.945L335.668 113.516H337.508L337.121 110.945H337.105ZM341.042 115.797C340.402 115.797 339.847 115.406 339.714 114.887H339.695L339.519 115.727H338.875L340.074 110.09H340.746L340.281 112.301H340.292C340.515 111.891 341.015 111.594 341.531 111.594C342.453 111.594 343.054 112.25 343.054 113.375C343.054 114.594 342.304 115.797 341.042 115.797ZM341.035 115.195C341.851 115.195 342.375 114.383 342.375 113.391C342.375 112.648 342.015 112.191 341.375 112.191C340.531 112.191 339.964 113.039 339.964 114.055C339.964 114.723 340.394 115.195 341.035 115.195ZM345.46 111.594C346.499 111.594 347.163 112.301 347.163 113.379C347.163 114.734 346.265 115.797 345.081 115.797C344.042 115.797 343.378 115.09 343.378 114.012C343.378 112.656 344.277 111.594 345.46 111.594ZM345.081 115.199C345.89 115.199 346.476 114.422 346.476 113.398C346.476 112.668 346.081 112.191 345.46 112.191C344.652 112.191 344.066 112.969 344.066 113.992C344.066 114.723 344.46 115.199 345.081 115.199ZM347.569 111.664H348.241L348.702 114.953H348.718L350.507 111.664H351.257L348.937 115.727H348.202L347.569 111.664ZM352.55 115.805C351.444 115.805 350.878 115.047 350.878 114.016C350.878 112.68 351.71 111.594 352.889 111.594C353.901 111.594 354.53 112.25 354.53 113.309C354.53 113.477 354.522 113.68 354.495 113.855H351.573C351.569 113.902 351.569 113.949 351.569 113.996C351.569 114.746 351.956 115.207 352.557 115.207C353.104 115.207 353.491 114.918 353.675 114.477H354.343C354.132 115.227 353.421 115.805 352.55 115.805ZM351.659 113.312H353.835C353.839 113.277 353.839 113.238 353.839 113.203C353.839 112.688 353.565 112.188 352.882 112.188C352.249 112.188 351.823 112.68 351.659 113.312ZM343.144 121.68C343.144 122.758 342.398 123.82 341.011 123.82C339.953 123.82 339.152 123.086 339.152 121.566C339.152 119.609 340.234 117.996 341.785 117.996C342.757 117.996 343.472 118.633 343.546 119.57H342.828C342.738 118.988 342.312 118.625 341.714 118.625C340.875 118.625 340.171 119.465 339.917 120.766L339.941 120.77C340.253 120.328 340.785 120.016 341.437 120.016C342.437 120.016 343.144 120.699 343.144 121.68ZM341.265 120.625C340.48 120.625 339.867 121.156 339.867 121.969C339.867 122.68 340.375 123.195 341.074 123.195C341.875 123.195 342.417 122.609 342.417 121.82C342.417 121.117 341.941 120.625 341.265 120.625ZM345.574 123.82C344.441 123.82 343.722 123.031 343.722 121.789C343.722 119.57 344.765 117.996 346.234 117.996C347.363 117.996 348.081 118.793 348.081 120.043C348.081 122.273 347.054 123.82 345.574 123.82ZM344.449 121.777C344.449 122.652 344.898 123.203 345.605 123.203C346.593 123.203 347.351 121.836 347.351 120.047C347.351 119.176 346.906 118.617 346.21 118.617C345.222 118.617 344.449 120.004 344.449 121.777ZM349.483 120.078H348.917L349.718 118.09H350.44L349.483 120.078Z" fill="#9C9C9C"/>
</g>
<path d="M389.989 206.11C350.161 203.65 277.74 202 194.994 202C112.248 202 39.8271 203.65 0 206.11V211H390V206.11H389.989Z" fill="url(#paint0_linear_227_220)"/>
<defs>
<linearGradient id="paint0_linear_227_220" x1="8.87e-07" y1="211" x2="389.22" y2="228.42" gradientUnits="userSpaceOnUse">
<stop stop-color="white"/>
<stop offset="0.15873" stop-color="#15B427"/>
<stop offset="0.81373" stop-color="#5A8D4E"/>
<stop offset="1" stop-color="white"/>
</linearGradient>
<clipPath id="clip0_227_220">
<rect width="393.709" height="210.883" fill="white" transform="translate(16.2915 0.117188)"/>
</clipPath>
</defs>
</svg>
